<svg xmlns="http://www.w3.org/2000/svg" viewBox="0 0 64 64" width="80" height="80" fill="none">
    <!-- Tooth outline -->
    <path d="M20 6
             C14 6 10 10 10 16
             V26
             C10 36 14 48 20 56
             C22 58 26 58 28 54
             L32 44
             L36 54
             C38 58 42 58 44 56
             C50 48 54 36 54 26
             V16
             C54 10 50 6 44 6
             Z" stroke="currentColor" stroke-width="2" stroke-linecap="round" stroke-linejoin="round"></path>

    <!-- Braces wire -->
    <path d="M18 30H46" stroke="currentColor" stroke-width="2" stroke-linecap="round"></path>

    <!-- Brackets -->
    <rect x="20" y="27" width="6" height="6" rx="1.5" stroke="currentColor" stroke-width="2"></rect>
    <rect x="29" y="27" width="6" height="6" rx="1.5" stroke="currentColor" stroke-width="2"></rect>
    <rect x="38" y="27" width="6" height="6" rx="1.5" stroke="currentColor" stroke-width="2"></rect>
</svg>
