<svg version="1.1" id="Layer_1" xmlns="http://www.w3.org/2000/svg" xmlns:xlink="http://www.w3.org/1999/xlink" x="0px" y="0px"
	 width="80" height="80" viewBox="0 0 586 270" enable-background="new 0 0 586 270" xml:space="preserve">
<path fill="none" stroke="#546E7A" stroke-linecap="round" stroke-linejoin="round" stroke-width="10.000000"
	d="
M227.500000,118.500000 
	C227.504425,124.908134 230.748001,130.342636 233.087646,135.963516 
	C238.507706,148.985016 243.381927,162.148682 242.391205,176.492493 
	C241.677277,186.828995 239.430099,197.101547 240.073120,207.495483 
	C241.257568,226.641113 248.061478,243.214737 263.488037,255.514984 
	C265.864441,257.409790 268.709290,258.077240 271.509735,258.420654 
	C276.684570,259.055237 279.731262,255.636108 280.034485,250.001862 
	C281.039124,231.335403 279.463440,212.522995 283.031158,194.005997 
	C284.233124,187.767685 285.964111,181.770844 288.770325,175.890396 
	C291.511688,170.145798 295.920776,167.165604 301.012421,164.523941 
	C306.815002,161.513458 311.444458,162.722549 317.425659,167.591309 
	C326.126587,174.673920 328.079803,185.178238 329.986603,195.502472 
	C332.646423,209.903488 331.865112,224.473083 332.043274,238.999466 
	C332.098541,243.502884 332.253113,248.080353 333.107819,252.479050 
	C334.109711,257.635376 336.591949,258.761383 342.003540,258.026093 
	C351.056458,256.796082 355.894379,250.417313 360.530792,243.520691 
	C371.303192,227.496887 374.943665,209.975449 371.991669,191.001297 
	C369.952637,177.895233 369.392975,164.784225 373.592163,152.030350 
	C376.443085,143.371506 380.225189,135.022202 383.464325,126.486465 
	C384.436035,123.925911 385.582977,121.354073 385.500000,118.500000 
"/>
<path fill="none" opacity="1.000000" stroke="#546E7A" stroke-linecap="round" stroke-linejoin="round" stroke-width="10.000000"
	d="
M58.500000,118.500000 
	C60.753513,126.940887 64.010345,135.036362 67.561218,142.972610 
	C74.579674,158.658966 75.003868,174.914658 72.489487,191.498398 
	C68.848991,215.509445 75.170502,236.258194 92.479095,253.520966 
	C95.442528,256.476532 99.194809,257.651031 103.015640,258.422516 
	C107.823219,259.393280 111.211647,256.249359 111.489693,250.999451 
	C112.071823,240.007767 112.560150,229.019897 112.574509,218.000092 
	C112.589943,206.144211 113.548965,194.345673 117.490097,182.996567 
	C119.817795,176.293533 122.521019,169.832474 129.012039,166.020493 
	C135.666122,162.112717 138.836472,161.338181 146.496796,166.504761 
	C153.952957,171.533615 156.999390,179.305618 158.945007,187.513031 
	C163.036774,204.773743 162.891418,222.404907 163.020264,239.999847 
	C163.048340,243.834198 163.239655,247.673615 163.523346,251.498276 
	C163.890808,256.452423 167.565781,259.306610 172.497498,258.485016 
	C180.524490,257.147766 185.537811,251.444656 189.925781,245.445709 
	C201.361801,229.811188 205.464279,212.107849 202.915268,193.011307 
	C201.669556,183.678802 200.195023,174.424576 201.508057,165.001129 
	C202.796021,155.757568 205.400665,146.940338 209.425140,138.464462 
	C212.452759,132.088043 214.699814,125.353271 216.500000,118.500000 
"/>
<path fill="none" opacity="1.000000" stroke="#546E7A" stroke-linecap="round" stroke-linejoin="round" stroke-width="10.000000"
	d="
M554.000000,118.500000 
	C551.814148,128.083923 547.615845,136.937469 543.991089,145.996445 
	C538.409851,159.945038 537.808838,174.360428 540.020142,188.996964 
	C543.611755,212.770050 538.866150,234.108627 521.993896,251.994247 
	C519.234436,254.919418 515.924500,256.965912 512.002075,258.007812 
	C505.405670,259.759949 501.215057,256.778839 501.017029,249.999496 
	C500.778503,241.834930 500.548218,233.666977 500.527710,225.499924 
	C500.496826,213.214417 499.635895,201.009445 496.956299,189.009766 
	C495.076691,180.592804 492.357391,172.534134 485.010956,166.985504 
	C476.792389,160.778229 471.913513,162.355011 465.071838,167.103516 
	C460.166992,170.507736 457.395477,175.925308 455.560577,181.519867 
	C452.162689,191.879684 450.690155,202.576370 450.448730,213.498871 
	C450.168671,226.170395 449.700348,238.845795 448.913666,251.494629 
	C448.532379,257.625122 445.113129,259.452087 438.993073,258.029785 
	C431.134369,256.203430 426.164734,250.665085 422.073181,244.451813 
	C411.366028,228.192322 406.816345,210.721390 410.295685,190.964020 
	C413.495056,172.796204 411.631134,154.881805 403.122223,137.938629 
	C400.070679,131.862244 397.587952,125.359573 396.500000,118.500000 
"/>
<path fill="none" opacity="1.000000" stroke="#546E7A" stroke-linecap="round" stroke-linejoin="round" stroke-width="10.000000"
	d="
M558.500000,105.000000 
	C558.145020,98.119194 559.291626,93.318008 559.400452,88.497749 
	C559.693726,75.512901 557.862183,63.104851 550.106323,51.926243 
	C542.686584,41.232124 533.271545,39.455696 521.025696,43.086708 
	C511.231750,45.990711 501.732910,49.877014 491.983337,52.947090 
	C479.610443,56.843262 467.198395,56.005280 455.013397,51.959667 
	C446.610321,49.169708 438.516724,45.251598 429.961945,43.155361 
	C411.999207,38.753826 404.059479,43.294197 395.476715,60.488369 
	C390.463196,70.531998 390.696259,81.252457 391.071777,91.997490 
	C391.119019,93.349182 391.180237,94.634048 391.066132,96.005501 
	C390.494049,102.883064 391.579010,103.980675 398.500000,103.995628 
	C406.999969,104.013992 415.526733,103.594551 423.989960,104.152473 
	C429.044739,104.485695 434.002289,103.856491 438.999237,104.023232 
	C442.575409,104.142570 444.172058,102.575005 444.022003,98.999077 
	C443.910278,96.337105 443.927277,93.664230 444.016510,91.000557 
	C444.162659,86.638397 447.139130,83.548668 451.500122,83.528465 
	C467.166443,83.455917 482.833557,83.455032 498.499878,83.528793 
	C502.909119,83.549553 505.248505,86.081139 505.462708,91.001625 
	C505.643738,95.160408 505.500000,99.333336 505.500000,104.000000 
	C525.663940,104.000000 545.836060,104.000000 566.155518,104.000000 
	C567.726624,108.435005 566.863281,112.477921 566.409546,116.866905 
	C561.321045,116.286331 556.289490,117.697006 550.982605,117.177628 
	C543.718872,116.466721 536.329895,116.868965 529.001526,117.059586 
	C525.721558,117.144913 522.168152,115.783485 519.297668,119.336540 
	C518.441956,120.395683 515.166687,119.500000 515.000000,119.500000 
	C510.654755,119.500000 508.309509,119.500000 505.500000,119.500000 
	C505.500000,123.818848 505.579865,127.661522 505.478851,131.499451 
	C505.364655,135.839310 503.838104,137.452988 499.499878,137.471710 
	C483.166840,137.542221 466.832733,137.575241 450.500427,137.445145 
	C446.598724,137.414062 443.460999,136.506699 443.937012,130.495010 
	C444.213959,126.997253 444.374237,123.400864 442.920898,119.500000 
	C440.522034,119.500000 438.011017,119.500000 435.500000,119.500000 
	C434.500000,119.500000 433.335205,119.840584 432.524902,119.448540 
	C421.656982,114.190407 410.156738,117.796303 398.988129,117.237404 
	C394.058624,116.990715 389.007263,116.817474 383.998444,116.933220 
	C374.170349,117.160332 364.243896,116.229698 354.541382,117.356346 
	C350.303955,117.848389 346.056000,119.641022 341.498901,119.572037 
	C339.234100,119.537750 338.397156,121.283363 338.480408,123.500732 
	C338.567871,125.830788 338.520447,128.166885 338.495941,130.499954 
	C338.437897,136.022003 337.188873,137.387115 331.499573,137.470383 
	C323.501282,137.587463 315.500000,137.500000 307.500000,137.500000 
	C299.166656,137.500000 290.833221,137.527573 282.500061,137.489502 
	C277.620483,137.467209 276.182068,135.861053 275.962402,131.001694 
	C275.796326,127.328522 277.576233,122.753288 274.789795,120.232361 
	C272.340210,118.016228 267.676910,120.599480 264.558105,119.354454 
	C254.362213,115.284279 243.852219,117.318718 233.498016,117.090218 
	C217.838959,116.744644 202.166672,117.000000 186.500000,117.000000 
	C185.500000,117.000000 184.159286,116.579163 183.555222,117.068207 
	C179.596268,120.273338 174.982056,119.460045 170.499939,119.491837 
	C167.994827,119.509605 168.171890,121.563972 168.066086,123.004852 
	C167.846970,125.988762 167.824631,129.012894 168.044128,131.996750 
	C168.322220,135.777420 166.594955,137.483780 162.999985,137.489044 
	C146.166687,137.513718 129.333069,137.549820 112.500191,137.463379 
	C108.515549,137.442917 106.569023,135.122620 106.500351,131.000000 
	C106.497574,130.833374 106.511719,130.665726 106.498276,130.500137 
	C106.241592,127.338142 107.595253,123.762024 105.860970,121.090240 
	C103.665749,117.708351 99.417580,120.667213 96.540062,119.408424 
	C85.751740,114.688972 74.502701,117.706345 63.494373,117.102608 
	C54.355194,116.601379 45.166592,117.017677 36.000095,116.978012 
	C34.832611,116.972961 33.666416,116.668480 32.582726,116.514526 
	C31.951971,112.666664 31.593182,108.833336 32.398628,105.034622 
	C34.692993,103.684296 37.127258,104.009995 39.500008,104.007721 
	C55.166660,103.992744 70.838821,103.765762 86.496902,104.132393 
	C91.683220,104.253830 96.834526,103.884590 101.999557,104.017143 
	C105.176170,104.098679 106.952438,103.156189 106.559715,99.493599 
	C106.259377,96.692467 106.440956,93.831787 106.515144,91.000397 
	C106.605209,87.563194 109.321518,83.523598 114.000031,83.513206 
	C129.666626,83.478401 145.333954,83.422462 160.999603,83.548431 
	C165.550552,83.585022 167.866821,86.397743 168.016571,90.999458 
	C168.152222,95.166786 167.499130,99.366699 168.645340,104.124290 
	C186.336685,103.345818 204.220078,105.690781 222.000000,102.500000 
	C239.778381,105.773415 257.663696,103.325211 275.350830,104.140190 
	C276.500854,99.366699 275.863739,95.166954 275.980743,90.999458 
	C276.134399,85.525803 278.029175,83.519676 283.500031,83.509644 
	C298.666626,83.481819 313.841431,83.787651 328.996094,83.361092 
	C335.222290,83.185844 338.761688,87.242531 338.597931,93.002785 
	C338.304810,103.313835 338.545105,103.682755 347.502228,103.914032 
	C360.493561,104.249466 373.500031,103.988205 386.499939,104.020226 
	C387.663116,104.023087 388.638885,103.750031 389.500000,105.000000 
"/>
<path fill="none" opacity="1.000000" stroke="#546E7A" stroke-linecap="round" stroke-linejoin="round" stroke-width="10.000000"
	d="
M221.000000,69.500000 
	C218.321487,66.899719 218.593628,63.036568 216.964981,60.018902 
	C213.272919,53.178131 209.784592,46.299080 201.540390,43.385689 
	C195.572266,41.276630 189.862823,41.715626 184.002563,43.011604 
	C175.878555,44.808205 168.268829,48.185760 160.531891,51.085083 
	C143.548218,57.449509 127.082588,56.014050 110.460007,49.603706 
	C100.809212,45.881969 91.327766,41.228954 80.498833,41.439987 
	C74.317825,41.560440 69.513138,43.844673 65.465622,48.469913 
	C57.285164,57.818008 54.014530,68.884529 53.505466,81.000229 
	C53.196220,88.360176 53.869984,95.680153 54.500000,105.000000 
"/>
<path fill="none" opacity="1.000000" stroke="#546E7A" stroke-linecap="round" stroke-linejoin="round" stroke-width="10.000000"
	d="
M391.000000,71.000000 
	C387.766449,69.060890 388.402557,65.282669 387.136597,62.439182 
	C383.643829,54.593914 379.633759,47.478451 371.519440,43.460732 
	C366.238525,40.845932 360.796875,41.663639 355.517578,42.599266 
	C345.822479,44.317493 336.839111,48.540741 327.548553,51.645329 
	C315.898956,55.538246 304.468658,56.205856 292.474701,53.617146 
	C281.383362,51.223240 271.406219,45.682713 260.481628,43.076969 
	C245.154495,39.421120 236.435577,41.720367 227.918228,56.954285 
	C225.639526,61.029934 225.414261,66.012177 222.000000,69.500000 
"/>
<path fill="none" opacity="1.000000" stroke="#546E7A" stroke-linecap="round" stroke-linejoin="round" stroke-width="5.000000"
	d="
M305.000000,104.000000 
	C307.799072,103.913300 309.835327,105.492851 312.034485,106.947853 
	C314.873077,108.825920 320.484070,108.199318 322.991608,105.990471 
	C325.363220,103.901367 325.381439,101.333733 324.528137,98.491547 
	C323.378662,94.663063 320.618652,92.422874 317.048065,93.640877 
	C308.565430,96.534515 300.394226,96.075279 291.966461,93.614868 
	C289.076874,92.771271 285.499512,93.119667 284.578583,97.018562 
	C283.759674,100.485657 282.916931,104.109863 286.447327,107.062981 
	C288.571198,108.839584 290.867096,108.011536 292.430206,107.338043 
	C296.358276,105.645576 300.547455,104.975670 304.500000,103.500000 
"/>
<path fill="none" opacity="1.000000" stroke="#546E7A" stroke-linecap="round" stroke-linejoin="round" stroke-width="5.000000"
	d="
M319.500000,115.500000 
	C317.316406,116.849403 314.754913,117.609238 312.439575,118.296349 
	C308.024719,119.606499 303.311005,120.810303 298.933899,117.077530 
	C295.533264,114.177505 291.228638,115.349991 287.543640,116.626053 
	C284.358154,117.729156 284.056183,121.091164 284.578461,123.985847 
	C285.146545,127.134468 286.727600,129.816254 290.500671,129.984726 
	C293.266144,130.108215 295.860901,129.469971 298.531036,128.594666 
	C303.302246,127.030571 308.229156,126.810745 313.006622,128.985443 
	C313.960663,129.419724 314.977173,129.792191 316.003845,129.978851 
	C321.206726,130.924835 323.921387,129.544983 325.000000,125.500000 
	C326.492493,119.902725 325.462128,117.842041 320.000000,115.500000 
"/>
<path fill="none" opacity="1.000000" stroke="#546E7A" stroke-linecap="round" stroke-linejoin="round" stroke-width="5.000000"
	d="
M473.500000,103.500000 
	C476.166656,104.833336 478.731934,106.459755 481.525482,107.426331 
	C485.071228,108.653168 488.692169,108.428673 491.472839,105.474434 
	C493.906219,102.889214 493.070801,100.012665 492.078644,96.974319 
	C491.108093,94.002174 489.254730,93.196800 486.501282,93.511200 
	C485.660034,93.607269 484.872528,93.578133 483.969543,93.919426 
	C477.024902,96.544426 470.132996,96.434021 462.961517,94.119217 
	C456.178802,91.929924 452.967041,94.668968 455.000000,101.500000 
	C453.023560,106.385597 457.007141,109.407494 461.457489,107.405487 
	C465.213684,105.715736 469.049469,104.496376 475.000000,103.500000 
"/>
<path fill="none" opacity="1.000000" stroke="#546E7A" stroke-linecap="round" stroke-linejoin="round" stroke-width="5.000000"
	d="
M488.500000,115.499985 
	C486.000000,116.333321 483.461548,117.067810 481.008514,118.021851 
	C476.734985,119.683907 472.733887,120.249176 468.436462,117.603180 
	C465.527771,115.812256 462.274170,115.312988 458.444092,116.278114 
	C454.294098,117.323853 453.432159,119.797997 453.589722,122.995583 
	C453.800476,127.272339 456.470764,129.843674 460.000061,129.998886 
	C462.069489,130.089905 464.062592,129.784378 466.004211,129.010574 
	C470.991577,127.022942 475.991486,126.626633 481.007538,128.983978 
	C481.954926,129.429214 482.977173,129.792130 484.003845,129.978867 
	C489.182434,130.920792 491.691528,129.782761 492.999969,125.999992 
	C494.959534,120.334946 494.299377,118.601967 489.000000,115.500000 
"/>
<path fill="none" opacity="1.000000" stroke="#546E7A" stroke-linecap="round" stroke-linejoin="round" stroke-width="5.000000"
	d="
M135.500000,103.500000 
	C138.416672,104.333336 140.867661,106.094604 143.527405,107.446075 
	C146.721420,109.069046 152.773285,107.539520 154.500000,105.000000 
	C155.820282,103.058243 154.725342,97.014580 153.044434,94.963585 
	C151.141876,92.642159 148.348953,92.931244 146.562622,93.654640 
	C139.080841,96.684456 131.958328,96.574120 124.438843,93.657692 
	C121.405708,92.481293 117.831673,93.303734 115.982353,96.991150 
	C114.744713,99.458916 115.614761,104.678551 117.472023,106.528091 
	C119.326042,108.374413 121.493309,108.465851 123.465591,107.434212 
	C127.135231,105.514732 131.049469,104.496376 135.000000,103.500000 
"/>
<path fill="none" opacity="1.000000" stroke="#546E7A" stroke-linecap="round" stroke-linejoin="round" stroke-width="4.000000"
	d="
M221.500000,70.750000 
	C221.500000,75.500000 221.500000,80.250000 221.500000,85.000000 
	C221.500000,90.666664 221.500000,96.333336 221.500000,102.000000 
"/>
<path fill="none" opacity="1.000000" stroke="#546E7A" stroke-linecap="round" stroke-linejoin="round" stroke-width="4.000000"
	d="
M351.500000,105.500000 
	C351.776917,109.495407 350.913483,113.538330 352.000000,117.500000 
"/>
<path fill="none" opacity="1.000000" stroke="#546E7A" stroke-linecap="round" stroke-linejoin="round" stroke-width="4.000000"
	d="
M93.500000,105.500000 
	C93.223099,109.495407 94.086525,113.538330 95.000000,117.500000 
"/>
<path fill="none" opacity="1.000000" stroke="#546E7A" stroke-linecap="round" stroke-linejoin="round" stroke-width="5.000000"
	d="
M520.499939,105.500000 
	C520.833313,109.333336 521.166626,113.166672 521.499939,117.000000 
"/>
<path fill="none" opacity="1.000000" stroke="#546E7A" stroke-linecap="round" stroke-linejoin="round" stroke-width="4.000000"
	d="
M260.500000,105.500000 
	C260.016296,109.320259 261.593384,113.319717 259.500000,117.000000 
"/>
<path fill="none" opacity="1.000000" stroke="#546E7A" stroke-linecap="round" stroke-linejoin="round" stroke-width="5.000000"
	d="
M431.000000,105.500000 
	C430.794067,109.356239 431.722961,113.335831 429.750000,117.000000 
"/>
<path fill="none" opacity="1.000000" stroke="#546E7A" stroke-linecap="round" stroke-linejoin="round" stroke-width="5.000000"
	d="
M181.000000,105.500000 
	C181.383926,109.328934 180.093445,113.303467 182.000000,117.000000 
"/>
<path fill="none" opacity="1.000000" stroke="#546E7A" stroke-linecap="round" stroke-linejoin="round" stroke-width="5.000000"
	d="
M124.000000,115.500000 
	C121.014000,116.437668 117.326180,116.204391 116.469254,120.493858 
	C115.858505,123.551079 116.304062,126.169144 118.482292,128.516434 
	C121.090927,131.327515 124.425575,130.328644 126.939857,129.346100 
	C133.123642,126.929649 138.877518,127.255203 145.032303,129.407608 
	C152.059601,131.865158 156.237183,128.783203 155.999985,122.000000 
	C155.842911,117.507782 153.306854,115.240791 149.009079,116.048325 
	C146.956284,116.434044 144.965439,117.245674 143.007095,118.018005 
	C138.741165,119.700401 134.655563,120.389793 130.448944,117.576332 
	C128.759003,116.446075 126.500000,116.166664 124.500000,115.500000 
"/>
</svg>