<svg version="1.1" id="Layer_1" xmlns="http://www.w3.org/2000/svg" xmlns:xlink="http://www.w3.org/1999/xlink" x="0px" y="0px"
	 width="70" viewBox="0 0 338 306" enable-background="new 0 0 338 306" xml:space="preserve">
<path fill="none" opacity="1.000000" stroke="#546E7A" stroke-linecap="round" stroke-linejoin="round" stroke-width="10.000000"
	d="
M244.500000,146.500000 
	C248.711914,146.422760 252.255569,148.565247 255.989868,150.025925 
	C259.123627,151.251694 261.840881,151.394211 265.085083,149.659058 
	C267.967926,148.117172 271.214935,146.828873 275.068848,148.322372 
	C277.725250,149.351822 281.164673,150.260056 283.972656,147.966537 
	C284.996216,147.130524 286.394958,147.202682 286.939423,147.586044 
	C291.182129,150.573441 296.045746,148.017853 300.546844,149.340622 
	C304.295959,150.442429 305.787933,146.645508 306.366699,143.971146 
	C307.821014,137.251633 309.674377,130.542801 309.051422,123.495453 
	C308.740295,119.975906 309.671844,116.792496 311.319641,113.412086 
	C314.862579,106.143829 316.253998,98.167397 315.980560,90.000648 
	C315.963654,89.495644 315.776917,88.921013 315.483643,88.511711 
	C309.958801,80.800720 305.575867,71.629791 294.496490,70.535538 
	C282.756012,69.375992 272.548859,63.945530 263.141754,57.783611 
	C247.974686,47.848778 231.641861,47.043812 214.493393,47.861397 
	C204.734100,48.326694 196.886993,52.000721 189.995178,58.494884 
	C186.943710,61.370277 183.260025,63.281643 179.490509,64.978928 
	C171.027298,68.789642 166.525436,67.570442 159.956360,60.540779 
	C155.857742,56.154781 151.275345,52.224800 147.019913,47.980034 
	C144.069229,45.036755 140.334488,44.136822 136.498795,44.059551 
	C121.705025,43.761532 107.077332,44.934681 92.999908,49.999756 
	C85.493721,52.700493 79.159088,57.609867 72.061104,61.123440 
	C62.908207,65.654221 53.728226,69.773811 43.497288,70.976936 
	C39.306984,71.469696 36.115513,73.030693 33.891514,76.938255 
	C32.470726,79.434586 30.182634,81.547905 27.953438,83.445290 
	C25.211699,85.778915 24.428093,88.668304 24.505447,91.999870 
	C24.678217,99.441086 25.647732,106.728905 29.046291,113.476685 
	C29.347471,114.074677 29.599558,115.161629 30.750000,115.000000 
"/>
<path fill="none" opacity="1.000000" stroke="#546E7A" stroke-linecap="round" stroke-linejoin="round" stroke-width="10.000000"
	d="
M94.000000,182.000000 
	C87.649986,181.532959 81.486633,179.132309 74.858063,182.192566 
	C72.653595,183.210327 68.716507,181.505402 65.500595,181.459000 
	C61.092422,181.395386 58.167976,183.007843 56.969460,187.491837 
	C55.604736,192.597656 53.655125,197.557404 53.977127,203.001358 
	C54.174549,206.339050 52.927055,208.785507 49.527611,210.072906 
	C48.030315,210.639954 46.553196,211.778976 45.555340,213.043671 
	C43.092384,216.165283 40.772690,217.423691 38.326595,213.274872 
	C30.846699,218.431000 26.883492,227.877151 29.046513,235.486786 
	C30.152109,239.376328 33.819462,241.724472 37.039085,242.268814 
	C45.820816,243.753510 52.599106,248.729355 59.425346,253.604523 
	C63.177135,256.283966 67.249550,258.186829 71.505226,258.295593 
	C76.737434,258.429321 81.091644,260.615448 85.428230,262.652771 
	C89.838997,264.724945 94.460495,265.914856 98.997299,265.838898 
	C113.496666,265.596069 128.066315,268.236786 142.500290,265.001282 
	C146.998428,263.992981 151.591187,263.293640 155.978607,261.931122 
	C162.543793,259.892334 169.311462,260.156525 176.000305,259.503143 
	C179.878922,259.124237 182.557266,261.634827 185.500000,263.500000 
"/>
<path fill="none" opacity="1.000000" stroke="#546E7A" stroke-linecap="round" stroke-linejoin="round" stroke-width="10.000000"
	d="
M301.500000,213.500000 
	C308.034424,216.126877 310.137878,221.832275 310.921875,228.009918 
	C312.086243,237.185028 309.206543,240.990799 299.991302,242.959320 
	C293.414062,244.364319 288.033997,247.959259 283.065918,252.079483 
	C278.445099,255.911728 273.213928,257.907440 267.489441,258.369171 
	C264.295471,258.626770 261.031097,259.207153 258.597107,260.662445 
	C250.889297,265.270935 242.586349,265.958191 234.000168,266.022339 
	C225.166092,266.088318 216.323166,266.131989 207.503891,266.577118 
	C202.387817,266.835297 197.817169,264.928345 192.998032,264.010345 
	C192.108841,263.841003 191.597031,263.402985 191.500000,262.500000 
"/>
<path fill="none" opacity="1.000000" stroke="#546E7A" stroke-linecap="round" stroke-linejoin="round" stroke-width="10.000000"
	d="
M171.000000,123.000000 
	C173.063309,118.646904 173.526566,113.730911 175.966339,109.480675 
	C179.776794,102.842575 185.139328,99.010902 192.999878,98.974525 
	C197.248581,98.954865 200.460495,100.885063 202.973022,104.021606 
	C206.830002,108.836517 209.288406,114.157372 210.130310,120.482658 
	C211.260651,128.975037 212.372452,137.424240 211.982727,145.999222 
	C211.746643,151.193680 210.071182,153.784470 204.998260,153.839417 
	C195.007629,153.947586 184.928314,155.073303 175.009857,152.953857 
	C172.027176,152.316513 170.269562,150.542770 170.431778,146.996872 
	C170.713394,140.841446 170.689163,134.544266 170.167374,128.528854 
	C169.395721,119.632751 167.380295,110.591408 160.030548,103.966118 
	C149.307281,94.299835 137.521240,99.311714 133.097321,111.036720 
	C129.112762,121.597198 128.785797,132.806595 128.982056,144.000320 
	C129.078217,149.485413 128.113022,151.007828 122.992706,151.406311 
	C116.021957,151.948792 108.999046,151.982529 102.000397,151.937653 
	C98.449005,151.914886 96.166847,149.328857 96.579323,145.508560 
	C97.425995,137.666794 96.597054,129.824249 97.050163,122.002907 
	C97.253914,118.485741 97.309059,114.713814 98.619675,111.549568 
	C104.277054,97.890930 117.771820,100.224190 125.007057,108.493828 
	C126.793091,110.535210 128.666656,112.500000 130.500000,114.500000 
"/>
<path fill="none" opacity="1.000000" stroke="#546E7A" stroke-linecap="round" stroke-linejoin="round" stroke-width="10.000000"
	d="
M286.000000,147.000000 
	C288.970123,138.241379 291.128662,129.345459 291.033936,119.999657 
	C290.997986,116.453537 289.733093,113.107964 289.831085,109.495415 
	C289.882843,107.587311 287.631866,106.682129 285.548065,105.875755 
	C279.661591,103.597847 274.162292,106.184425 268.532684,106.394447 
	C272.449188,120.494148 271.616486,134.315460 267.000000,148.000000 
"/>
<path fill="none" opacity="1.000000" stroke="#546E7A" stroke-linecap="round" stroke-linejoin="round" stroke-width="10.000000"
	d="
M113.000000,182.500000 
	C112.969658,188.906708 113.368996,195.260117 114.936043,201.516022 
	C115.154198,202.386932 115.161507,203.437958 114.564026,204.534882 
	C111.427200,210.293671 108.854088,216.387695 105.392616,221.932968 
	C102.399956,226.727234 99.817459,226.214966 96.999535,221.000244 
	C94.720985,216.783646 94.534569,212.122192 93.951973,207.506058 
	C93.173347,201.336670 93.378136,195.164398 93.542770,189.001144 
	C93.806770,179.117599 99.298241,175.248840 107.404167,179.675491 
	C110.653183,181.449799 112.732513,182.514191 115.576469,179.573959 
	C116.223671,178.904846 117.854492,178.934311 118.996513,179.038284 
	C125.656456,179.644623 132.510040,177.482239 139.016678,180.463608 
	C139.923462,180.879120 140.826523,179.689301 141.512497,179.614273 
	C149.492966,178.741394 157.485428,178.752655 165.506317,179.424515 
	C169.352280,179.746674 169.980423,181.989120 169.991669,185.000031 
	C170.017792,191.999939 170.000000,199.000000 170.000000,206.000000 
"/>
<path fill="none" opacity="1.000000" stroke="#546E7A" stroke-linecap="round" stroke-linejoin="round" stroke-width="10.000000"
	d="
M201.500000,207.500000 
	C198.991180,207.956116 198.542984,209.909744 197.946915,211.984756 
	C197.163071,214.713516 196.535278,217.730545 194.904053,219.928787 
	C188.970657,227.924576 179.726593,225.906693 175.925034,219.544800 
	C173.643753,215.727066 172.526077,211.558578 171.000000,207.500000 
"/>
<path fill="none" opacity="1.000000" stroke="#546E7A" stroke-linecap="round" stroke-linejoin="round" stroke-width="10.000000"
	d="
M139.500000,181.000000 
	C137.797989,189.000000 140.257004,196.950653 139.869507,205.017746 
	C139.620667,210.197922 142.044464,215.972885 145.546356,220.463852 
	C150.548065,226.878265 159.487762,226.794952 164.124023,219.579697 
	C166.583633,215.751907 167.203979,211.446106 169.000000,207.500000 
"/>
<path fill="none" opacity="1.000000" stroke="#546E7A" stroke-linecap="round" stroke-linejoin="round" stroke-width="10.000000"
	d="
M128.500000,150.000000 
	C131.502640,153.159393 135.275711,154.210999 139.499893,153.997986 
	C147.829834,153.577896 156.196152,154.820145 164.524109,153.117935 
	C166.838547,152.644867 168.490738,151.311111 170.500000,150.500000 
"/>
<path fill="none" opacity="1.000000" stroke="#546E7A" stroke-linecap="round" stroke-linejoin="round" stroke-width="10.000000"
	d="
M57.500000,184.500000 
	C56.166668,184.166672 54.728374,184.050018 53.517639,183.463577 
	C47.310955,180.457245 45.218803,181.483505 42.941273,187.979416 
	C40.652847,194.506378 40.516609,201.268631 40.060261,208.004089 
	C39.930492,209.919357 39.682194,211.730103 39.000000,213.500000 
"/>
<path fill="none" opacity="1.000000" stroke="#546E7A" stroke-linecap="round" stroke-linejoin="round" stroke-width="10.000000"
	d="
M287.000000,208.500000 
	C290.749390,209.202271 293.027557,212.008072 295.478882,214.520615 
	C296.489899,215.556870 297.650818,216.666000 298.952576,215.917511 
	C300.473267,215.043137 301.479187,213.572937 300.525787,211.488205 
	C299.354431,208.926971 300.115906,206.164902 300.032166,203.498993 
	C299.840027,197.384796 298.893494,191.415878 295.947296,186.028824 
	C292.878784,180.418045 292.567139,180.566406 286.470062,183.436432 
	C284.885651,184.182266 282.893860,184.075592 282.023224,185.949280 
	C285.608582,193.620789 286.537994,201.683197 286.016754,210.001053 
	C285.902344,211.827209 286.219177,213.698975 285.954712,215.493332 
	C285.389709,219.326691 283.160522,220.048065 280.010071,217.487625 
	C277.625977,215.550049 275.302216,213.534821 273.012085,211.486481 
	C271.710999,210.322769 270.945526,211.506500 270.000000,212.000000 
"/>
<path fill="none" opacity="1.000000" stroke="#546E7A" stroke-linecap="round" stroke-linejoin="round" stroke-width="10.000000"
	d="
M71.500000,107.000000 
	C68.868225,120.827568 68.894386,134.525482 73.500000,148.000000 
"/>
<path fill="none" opacity="1.000000" stroke="#546E7A" stroke-linecap="round" stroke-linejoin="round" stroke-width="10.000000"
	d="
M247.000000,199.500000 
	C247.050797,195.302597 246.531570,191.157181 246.142395,186.986710 
	C245.793610,183.248917 244.872330,180.352554 241.502319,178.495773 
	C238.253464,176.705765 235.172470,178.825119 232.606888,179.785522 
	C229.573639,180.921005 226.428802,182.955170 226.716812,188.016113 
	C226.964691,192.371628 226.665222,197.126923 225.076294,201.527542 
	C224.722839,202.506424 224.944778,204.123062 225.563416,204.952728 
	C229.427505,210.134872 230.923065,216.455139 234.000000,222.000000 
"/>
<path fill="none" opacity="1.000000" stroke="#546E7A" stroke-linecap="round" stroke-linejoin="round" stroke-width="10.000000"
	d="
M40.000000,109.000000 
	C37.759075,120.409050 39.584900,131.706757 41.084003,142.988831 
	C41.316074,144.735397 42.666668,146.333328 43.500000,148.000000 
"/>
<path fill="none" opacity="1.000000" stroke="#546E7A" stroke-linecap="round" stroke-linejoin="round" stroke-width="10.000000"
	d="
M301.000000,109.000000 
	C302.019470,119.376968 301.169434,129.678558 300.138885,140.013855 
	C299.837280,143.038803 298.104919,145.261963 297.500000,148.000000 
"/>
<path fill="none" opacity="1.000000" stroke="#546E7A" stroke-linecap="round" stroke-linejoin="round" stroke-width="10.000000"
	d="
M115.000000,206.500000 
	C117.390976,210.198212 116.940788,215.010071 119.946114,218.545807 
	C122.144997,221.132736 124.090897,223.620285 128.003021,223.019669 
	C131.867157,222.426407 133.471130,219.540451 135.003693,216.501862 
	C136.514160,213.507019 136.664169,209.832077 139.500000,207.500000 
"/>
<path fill="none" opacity="1.000000" stroke="#546E7A" stroke-linecap="round" stroke-linejoin="round" stroke-width="10.000000"
	d="
M97.500000,112.500000 
	C92.481163,108.371002 87.383209,104.633522 80.523193,103.807396 
	C78.538742,103.568420 75.545906,103.679924 75.201263,104.148140 
	C72.114929,108.341080 68.414436,105.556328 65.000481,105.478714 
	C64.663536,105.471062 64.348732,105.070091 63.997749,105.014130 
	C55.316109,103.630135 51.745705,106.226532 50.515850,115.002220 
	C49.175121,124.569092 50.155445,133.934845 53.536938,142.986206 
	C54.620312,145.886108 53.880894,147.567993 51.002701,148.508270 
	C46.908352,149.845886 42.678215,148.339462 38.453133,149.292160 
	C36.061329,149.831497 35.137917,146.701828 34.507160,144.497955 
	C31.841709,135.184784 31.714762,125.555138 31.004898,115.999634 
	C30.815834,113.454605 32.637039,111.607323 33.626381,109.561104 
	C34.785648,107.163437 38.091736,108.971497 39.339344,108.229774 
	C42.138798,106.565453 44.760811,106.934998 47.496346,107.072624 
	C48.518913,107.124069 49.500000,108.000000 50.500000,108.500000 
"/>
<path fill="none" opacity="1.000000" stroke="#546E7A" stroke-linecap="round" stroke-linejoin="round" stroke-width="10.000000"
	d="
M212.500000,149.500000 
	C215.921265,151.413116 219.692078,151.881699 223.500641,151.973282 
	C228.164612,152.085403 232.833984,152.049026 237.499817,151.986465 
	C242.353241,151.921402 244.446136,149.342651 243.462311,144.507675 
	C243.032150,142.393661 243.677429,140.447220 243.780396,138.488464 
	C244.275299,129.072968 244.488068,119.472092 240.910080,110.536003 
	C237.263535,101.428703 227.475128,99.225540 219.464081,104.949738 
	C215.721252,107.624130 213.590195,111.756866 210.000000,114.500000 
"/>
<path fill="none" opacity="1.000000" stroke="#546E7A" stroke-linecap="round" stroke-linejoin="round" stroke-width="10.000000"
	d="
M225.000000,206.500000 
	C222.739059,209.462296 223.113251,213.388718 221.108856,216.568619 
	C219.069809,219.803497 217.237778,222.892456 212.999405,222.965698 
	C208.303772,223.046860 206.301804,219.457596 204.562836,215.968689 
	C203.398895,213.633453 202.833328,211.000000 202.000000,208.500000 
"/>
<path fill="none" opacity="1.000000" stroke="#546E7A" stroke-linecap="round" stroke-linejoin="round" stroke-width="10.000000"
	d="
M227.500000,182.500000 
	C225.934723,180.216461 223.645401,178.880142 221.004929,179.068878 
	C214.337234,179.545502 207.489960,177.482239 200.983322,180.463608 
	C200.076538,180.879105 199.171356,179.687012 198.487854,179.614395 
	C190.340012,178.748886 182.179337,178.750854 173.990692,179.378677 
	C172.051727,179.527359 171.553329,181.273315 170.000000,181.500000 
"/>
<path fill="none" opacity="1.000000" stroke="#546E7A" stroke-linecap="round" stroke-linejoin="round" stroke-width="10.000000"
	d="
M74.500000,183.000000 
	C71.773972,190.939285 70.588097,199.085632 70.349655,207.495743 
	C70.243645,211.234756 71.623627,214.500870 72.205154,217.965561 
	C72.807129,221.552124 78.814270,222.349350 83.449501,219.420090 
	C87.035812,217.153732 90.166664,214.166656 93.500000,211.500000 
"/>
<path fill="none" opacity="1.000000" stroke="#546E7A" stroke-linecap="round" stroke-linejoin="round" stroke-width="10.000000"
	d="
M243.000000,222.500000 
	C244.342529,219.003510 244.245621,214.958649 247.226349,212.003616 
	C250.497696,213.884064 253.065231,216.972855 256.448944,219.081894 
	C262.529449,222.871735 266.280243,221.552902 268.025970,214.506439 
	C268.161987,213.957550 268.666687,213.500000 269.000000,213.000000 
"/>
<path fill="none" opacity="1.000000" stroke="#546E7A" stroke-linecap="round" stroke-linejoin="round" stroke-width="10.000000"
	d="
M200.500000,181.000000 
	C200.944946,186.684662 201.606201,192.297440 200.150436,198.038147 
	C199.445709,200.817184 200.333328,204.000000 200.500000,207.000000 
"/>
<path fill="none" opacity="1.000000" stroke="#546E7A" stroke-linecap="round" stroke-linejoin="round" stroke-width="10.000000"
	d="
M265.500000,183.000000 
	C267.765839,191.014420 269.770203,199.071533 269.500000,207.500000 
"/>
<path fill="none" opacity="1.000000" stroke="#546E7A" stroke-linecap="round" stroke-linejoin="round" stroke-width="10.000000"
	d="
M267.500000,106.000000 
	C263.035797,102.761086 256.164978,103.133858 250.509354,107.013649 
	C247.954163,108.766518 245.500000,110.666656 243.000000,112.499992 
"/>
<path fill="none" opacity="1.000000" stroke="#546E7A" stroke-linecap="round" stroke-linejoin="round" stroke-width="10.000000"
	d="
M53.000000,209.500000 
	C54.829926,210.867355 53.799404,212.816544 53.971584,214.502899 
	C54.139137,216.143982 53.527287,218.163040 55.523754,218.938873 
	C57.191368,219.586899 58.820015,218.429123 59.945381,217.437988 
	C63.037933,214.714294 65.668068,211.406769 70.000000,210.500000 
"/>
<path fill="none" opacity="1.000000" stroke="#546E7A" stroke-linecap="round" stroke-linejoin="round" stroke-width="10.000000"
	d="
M96.000000,146.500000 
	C91.737526,146.256638 88.379669,148.971161 84.522072,150.077011 
	C81.333076,150.991165 78.606255,151.297836 75.437859,149.617157 
	C72.297798,147.951447 68.678642,146.861710 65.003227,148.507217 
	C63.212727,149.308823 61.338638,148.891678 59.500000,149.000000 
"/>
<path fill="none" opacity="1.000000" stroke="#546E7A" stroke-linecap="round" stroke-linejoin="round" stroke-width="10.000000"
	d="
M282.500000,184.500000 
	C278.204895,180.544937 273.106934,181.040710 268.010162,182.051254 
	C266.195404,182.411072 264.706726,182.548935 262.965271,181.561234 
	C259.992859,179.875397 256.715698,180.446091 253.497269,180.983627 
	C251.010956,181.398911 248.500000,181.666687 246.000000,182.000015 
"/>
<path fill="none" opacity="1.000000" stroke="#546E7A" stroke-linecap="round" stroke-linejoin="round" stroke-width="10.000000"
	d="
M309.000000,113.500000 
	C307.586456,109.828362 306.074890,106.313499 301.000000,108.500000 
	C297.500000,104.908531 294.000000,106.771942 290.500000,108.500000 
"/>
</svg>