<svg xmlns="http://www.w3.org/2000/svg" width="55" height="55" viewBox="0 0 55 55" fill="none"><path d="M10.7184 26.5846C11.3418 27.6664 11.63 28.2549 11.3758 29.7998C11.1559 31.1314 11.0281 32.4345 10.9945 33.6753C10.9822 34.1451 10.5967 34.5177 10.1292 34.5177C10.1211 34.5177 10.1136 34.5177 10.1053 34.5177C9.62736 34.5045 9.2501 34.1072 9.26267 33.6287C9.2979 32.3094 9.4339 30.9267 9.66593 29.5185C9.83125 28.5149 9.72555 28.3314 9.2169 27.4494L9.06651 27.1869C6.62052 22.8917 5.71001 18.1507 6.3598 13.0941C6.42125 12.6212 6.85244 12.2841 7.32993 12.3463C7.80474 12.4068 8.13914 12.8416 8.07834 13.3155C7.47742 17.9902 8.31649 22.3691 10.5715 26.3292L10.7184 26.5846ZM47.6615 12.3462C47.1871 12.4067 46.8521 12.8415 46.9129 13.3153C47.5138 17.9901 46.6747 22.369 44.4199 26.3291L44.2726 26.5856C43.6493 27.6669 43.3608 28.2548 43.6158 29.8005C43.8356 31.1314 43.9634 32.4345 43.997 33.6752C44.0091 34.145 44.3946 34.5176 44.8625 34.5176H44.886C45.3641 34.5044 45.7414 34.1071 45.7288 33.6286C45.6934 32.3092 45.5574 30.9266 45.3254 29.5184C45.1603 28.5153 45.2655 28.3323 45.774 27.4505L45.9252 27.1868C48.3712 22.8916 49.2813 18.1506 48.6313 13.0939C48.5702 12.62 48.138 12.2851 47.6615 12.3462ZM22.0737 33.0365C21.7332 33.3723 21.7307 33.9214 22.0671 34.2613C22.4035 34.6008 22.9527 34.6051 23.2922 34.2674C25.6097 31.9748 29.3817 31.9738 31.6992 34.2674C31.8685 34.4351 32.0882 34.5177 32.3085 34.5177C32.532 34.5177 32.755 34.4321 32.9243 34.2613C33.2608 33.9214 33.258 33.3723 32.9179 33.0354C29.9277 30.078 25.0635 30.078 22.0737 33.0365ZM41.2645 14.8609C43.1411 17.1327 41.3556 22.1278 40.1494 24.4514C40.1313 24.4867 40.1108 24.5202 40.0875 24.5526C39.0928 25.9602 38.7388 27.9815 39.0355 30.5593C39.2437 31.5843 39.4092 32.5885 39.5281 33.5448C39.5871 34.0197 39.2503 34.4525 38.7758 34.5115C38.7388 34.516 38.7029 34.5176 38.6675 34.5176C38.2367 34.5176 37.8633 34.1969 37.809 33.7589C37.7026 32.9043 37.553 32.0052 37.3715 31.0888C37.3508 31.0669 37.3281 31.0478 37.3099 31.0229C34.9898 27.9801 31.32 26.163 27.4925 26.163C23.6106 26.163 19.9157 28.0187 17.5962 31.1286C17.4298 31.9882 17.2815 32.9072 17.1756 33.759C17.1164 34.2335 16.6946 34.5709 16.2088 34.5117C15.7346 34.4527 15.3974 34.0199 15.4566 33.545C15.5801 32.5501 15.7579 31.4628 15.9574 30.4775C16.2372 27.9386 15.8806 25.9453 14.8964 24.5529C14.8733 24.5203 14.8528 24.4869 14.8345 24.4517C13.6287 22.128 11.843 17.1329 13.7196 14.8611C14.6615 13.7209 16.2478 13.468 18.4338 14.1069C21.4099 14.6771 24.4551 14.9649 27.4854 14.9649H27.4988C30.5295 14.9649 33.5741 14.677 36.5504 14.1069C38.735 13.4679 40.3226 13.7206 41.2645 14.8609ZM39.5508 21.4922H15.4333C15.5693 21.8703 15.7186 22.2459 15.8787 22.6139H39.1055C39.2656 22.2458 39.415 21.8702 39.5508 21.4922ZM40.0715 19.7597C40.1633 19.3729 40.2341 18.9975 40.2836 18.638H14.7005C14.7502 18.9976 14.8205 19.373 14.9126 19.7597H40.0715ZM15.0554 15.9643C14.8639 16.1961 14.7411 16.5187 14.6773 16.9055H40.3066C40.2428 16.5187 40.1204 16.1961 39.9284 15.9643C39.3519 15.2654 38.0177 15.4777 37.0007 15.7799C36.9734 15.7879 36.9461 15.7951 36.9179 15.8004C33.822 16.3961 30.6526 16.6974 27.4994 16.6974C27.4932 16.6974 27.4888 16.6974 27.4853 16.6974C24.3315 16.6974 21.1621 16.3961 18.0661 15.8004C18.038 15.795 18.0105 15.7879 17.9834 15.7799C16.9657 15.4777 15.6317 15.2644 15.0554 15.9643ZM19.1104 27.2046H17.6624C17.7126 27.5694 17.7478 27.9465 17.7637 28.3375C18.1897 27.9315 18.6395 27.5525 19.1104 27.2046ZM27.4925 24.4305C29.3193 24.4305 31.1131 24.7977 32.7775 25.4747C32.785 25.4747 32.7922 25.4721 32.7998 25.4721H37.7216C37.8546 25.0779 38.0065 24.6994 38.1912 24.3466H16.7924C16.9771 24.6993 17.1298 25.0779 17.263 25.4721H22.1879C22.1934 25.4721 22.1982 25.4738 22.204 25.4738C23.8668 24.7977 25.66 24.4305 27.4925 24.4305ZM37.2213 28.343C37.2371 27.9496 37.2714 27.5711 37.3214 27.2045H35.8695C36.3428 27.5543 36.7933 27.9349 37.2213 28.343ZM54.3546 12.3325V34.5242C54.3546 35.8345 53.2886 36.8995 51.9781 36.8995H45.596C44.9428 42.9727 41.9055 47.9363 36.5442 51.6579C36.2076 51.888 35.8199 52.0042 35.4312 52.0042C35.1171 52.0042 34.8028 51.9282 34.5139 51.7759C33.8681 51.4329 33.4687 50.766 33.4727 50.0339V38.5162C33.4727 37.9652 33.3954 37.4241 33.2488 36.8995H21.7413C21.5938 37.4233 21.5183 37.9652 21.5183 38.5162V50.0389C21.5221 50.766 21.123 51.4339 20.4767 51.7759C20.1879 51.9293 19.8726 52.0052 19.5587 52.0052C19.171 52.0052 18.7854 51.8897 18.4515 51.6616C13.0866 47.9364 10.0485 42.9708 9.39576 36.8996H3.02081C1.71037 36.8996 0.644531 35.8346 0.644531 34.5243V12.3325C0.644531 11.0223 1.71037 9.95691 3.02081 9.95691H6.96835C7.02754 9.7252 7.08329 9.49424 7.14839 9.2635C7.15516 9.23976 7.16289 9.21591 7.17191 9.19303C8.45131 5.80108 10.3352 3.67026 12.7708 2.85836C15.5974 1.9166 19.1471 2.77919 23.325 5.42199C25.9774 6.42745 29.0127 6.42745 31.6672 5.42199C35.8457 2.77909 39.3957 1.9166 42.2208 2.85836C44.6565 3.67026 46.5401 5.80162 47.8193 9.19303C47.8279 9.21591 47.836 9.23879 47.8426 9.26243C47.908 9.49328 47.963 9.7252 48.022 9.95691H51.9781C53.2886 9.95691 54.3546 11.0223 54.3546 12.3325ZM8.75714 9.95691H46.2333C46.2168 9.89407 46.2031 9.83176 46.1853 9.7701C45.1001 6.91075 43.582 5.13861 41.6734 4.50213C39.351 3.72859 36.2721 4.54521 32.5227 6.93083C32.4747 6.9608 32.4239 6.98723 32.3708 7.00743C30.8203 7.60759 29.1799 7.91235 27.4955 7.91235C25.8107 7.91235 24.1709 7.60759 22.6212 7.00743C22.5677 6.98723 22.5171 6.9608 22.4691 6.93083C18.7203 4.54607 15.6428 3.72848 13.3185 4.50213C11.4096 5.13861 9.89108 6.91075 8.80548 9.76935C8.78808 9.83176 8.77443 9.89407 8.75714 9.95691ZM19.9631 36.8995H11.1375C11.7783 42.3669 14.5626 46.8523 19.4352 50.2346C19.5006 50.2797 19.5908 50.285 19.6652 50.2453C19.7405 50.2057 19.7865 50.1281 19.7858 50.0435V38.5162C19.7857 37.9688 19.85 37.4285 19.9631 36.8995ZM43.8548 36.8995H35.0283C35.1415 37.4296 35.2052 37.9687 35.2052 38.5162V50.0389C35.2047 50.1281 35.2505 50.2057 35.3256 50.2453C35.3996 50.2839 35.4907 50.2797 35.5612 50.2309C40.4283 46.8525 43.2134 42.368 43.8548 36.8995ZM52.6218 12.3325C52.6218 11.9777 52.3333 11.6894 51.9781 11.6894H3.02081C2.66557 11.6894 2.37714 11.9778 2.37714 12.3325V34.5242C2.37714 34.879 2.66567 35.1674 3.02081 35.1674H51.9781C52.3334 35.1674 52.6218 34.8789 52.6218 34.5242V12.3325Z" fill="url(#paint0_linear_16139_228)"></path><defs><linearGradient id="paint0_linear_16139_228" x1="16.6945" y1="53.4082" x2="39.4435" y2="6.01513" gradientUnits="userSpaceOnUse"><stop offset="0.0437" stop-color="#0EB7BC"></stop><stop offset="0.7537" stop-color="#546E7A"></stop></linearGradient></defs></svg>