<svg xmlns="http://www.w3.org/2000/svg" width="55" height="55" viewBox="0 0 55 55" fill="none">
  <path d="M41.0278 23.1702C41.411 25.1503 40.5912 27.1755 38.9391 28.3307C38.7843 28.4392 38.6069 28.4908 38.4315 28.4908C38.1517 28.4908 37.8761 28.3584 37.7036 28.1113C37.4228 27.7102 37.5209 27.1575 37.9224 26.877C39.0011 26.1222 39.5361 24.8 39.2859 23.5064C38.9827 21.9397 37.6045 20.8028 36.0085 20.8028C34.4131 20.8028 33.0345 21.9397 32.7309 23.5064C32.4807 24.8 33.0159 26.1221 34.0945 26.877C34.4961 27.1575 34.594 27.7107 34.3132 28.1124C34.0324 28.513 33.4793 28.6116 33.0778 28.3307C31.4256 27.1755 30.6056 25.1494 30.9892 23.1691C31.4538 20.7701 33.5648 19.0281 36.0086 19.0281C38.4526 19.0281 40.5636 20.7701 41.0278 23.1702ZM51.0269 28.4175L50.9041 28.631C50.4959 29.3395 50.4434 29.431 50.5657 30.1717C51.8477 37.9497 49.44 44.0156 43.4093 48.2026C43.1088 48.4095 42.7647 48.5159 42.41 48.5159C41.9403 48.5159 41.4804 48.3247 41.1475 47.9902C40.8156 47.6569 40.6345 47.2119 40.637 46.738V37.4552C40.637 35.2063 39.0246 33.3286 36.8958 32.9137V43.1126C36.8933 49.6668 31.4652 55 24.7957 55C18.126 55 12.6982 49.6668 12.6959 43.1126V39.8372C11.284 39.609 10.2005 38.3732 10.2005 36.8841V36.7308C9.20644 36.477 8.24389 36.1126 7.32996 35.6431C6.78823 35.3642 6.40658 34.9099 6.22603 34.3299C6.07377 33.8409 6.09973 33.3462 6.28038 32.8812C3.34266 30.6267 1.60591 27.1318 1.60547 23.4026V3.31255C1.60547 2.8222 2.00264 2.42492 2.49266 2.42492H5.72996C6.00776 1.01228 6.93543 0 8.07039 0C9.43187 0 10.4984 1.45478 10.4984 3.31255C10.4984 5.17066 9.43176 6.62555 8.07039 6.62555C6.93543 6.62555 6.00765 5.61282 5.72963 4.19952H3.37996V23.4025C3.38051 26.5022 4.79073 29.4098 7.18397 31.3335C7.59478 30.9165 8.16027 30.6711 8.76505 30.6711C9.11348 30.6711 9.46234 30.7552 9.77337 30.9146C12.1171 32.114 15.0482 32.114 17.3934 30.9146C17.7044 30.7552 18.0532 30.6711 18.4015 30.6711C19.0125 30.6711 19.5841 30.92 19.9959 31.3461C20.5037 30.9391 20.9735 30.4851 21.3957 29.9869C21.425 29.9524 21.4582 29.9238 21.4911 29.8956C21.5507 29.3947 21.4634 29.2393 21.113 28.631L20.9902 28.4166C18.503 24.0499 17.9626 19.004 19.4265 13.8263C19.4336 13.8015 19.4415 13.7773 19.4504 13.7541C20.4627 11.0702 21.926 9.3594 23.813 8.63119V4.19963H21.463C21.1854 5.61293 20.2576 6.62566 19.1224 6.62566C17.7608 6.62566 16.6942 5.17066 16.6942 3.31266C16.6942 1.45478 17.7607 0.000110011 19.1224 0.000110011C20.2574 0.000110011 21.1852 1.01239 21.463 2.42503H24.7C25.1902 2.42503 25.5873 2.82231 25.5873 3.31266V8.24392C25.7434 8.23292 25.9007 8.225 26.0615 8.225C28.0072 8.225 30.1897 9.00547 32.7315 10.6114C34.8173 11.3975 37.2004 11.3975 39.2857 10.6114C41.7934 9.02791 44.0374 8.225 45.9558 8.225C48.9583 8.225 51.1827 10.085 52.5668 13.7541C52.5757 13.7773 52.5834 13.8016 52.5906 13.8263C54.0545 19.004 53.5138 24.0499 51.0269 28.4175ZM19.7758 3.31255C19.7758 2.31336 19.312 1.77427 19.1222 1.77427C18.9324 1.77427 18.4685 2.31336 18.4685 3.31255C18.4685 4.3124 18.9325 4.85105 19.1222 4.85105C19.312 4.85116 19.7758 4.3124 19.7758 3.31255ZM7.41677 3.31255C7.41677 4.3124 7.88072 4.85105 8.0705 4.85105C8.26039 4.85105 8.72412 4.3124 8.72412 3.31255C8.72412 2.31336 8.26039 1.77427 8.0705 1.77427C7.88072 1.77427 7.41677 2.31336 7.41677 3.31255ZM13.1659 38.1043H14.0003C14.6572 38.1043 15.1915 37.5565 15.1915 36.884V36.023C15.1915 35.5999 15.4904 35.2352 15.9056 35.153C16.9911 34.9363 18.0407 34.5708 19.0254 34.0643C19.1427 34.0039 19.2068 33.9283 19.2461 33.8028C19.2855 33.6765 19.2759 33.5772 19.2134 33.4615L18.7944 32.679C18.7018 32.5069 18.5307 32.4454 18.4014 32.4454C18.3316 32.4454 18.2643 32.4617 18.2017 32.4944C15.3582 33.9489 11.8068 33.9489 8.96462 32.4944C8.90202 32.4617 8.83469 32.4454 8.76494 32.4454C8.63544 32.4454 8.46448 32.5069 8.37217 32.679L7.95289 33.4606C7.8904 33.5772 7.88094 33.6764 7.92021 33.8027C7.95949 33.9282 8.02363 34.0049 8.14135 34.0653C9.12558 34.5707 10.1752 34.9362 11.2607 35.1528C11.6759 35.2351 11.9748 35.5998 11.9748 36.0229V36.8839C11.9748 37.5565 12.5092 38.1043 13.1659 38.1043ZM35.1213 43.1114V32.9136C32.9925 33.3285 31.3799 35.2062 31.3799 37.4551V46.7427C31.3824 47.2118 31.2012 47.6557 30.8693 47.99C30.2849 48.5764 29.3 48.6774 28.6119 48.2065C23.2416 44.4776 20.7513 39.2595 21.1695 32.6756C21.0779 32.7504 20.9852 32.8223 20.8914 32.8945C21.0674 33.355 21.0913 33.8452 20.9404 34.3299C20.7598 34.9098 20.3782 35.3641 19.8373 35.6431C18.9227 36.1126 17.96 36.477 16.9662 36.7308V36.8841C16.9662 38.3732 15.8825 39.609 14.4705 39.8372V43.1126C14.4724 48.6883 19.1044 53.2253 24.7958 53.2253C30.4873 53.2252 35.1193 48.6882 35.1213 43.1114ZM36.6426 24.1401C36.6426 23.7909 36.3581 23.5064 36.0085 23.5064C35.6589 23.5064 35.3743 23.7909 35.3743 24.1401C35.3743 24.4906 35.6589 24.7747 36.0085 24.7747C36.358 24.7747 36.6426 24.4905 36.6426 24.1401ZM50.8931 14.345C49.7812 11.4207 48.1659 9.99927 45.9556 9.99927C44.3605 9.99927 42.411 10.725 40.1612 12.1564C40.1121 12.1878 40.06 12.2139 40.0056 12.2348C37.463 13.2207 34.5542 13.2216 32.0111 12.2348C31.9567 12.2141 31.9046 12.1878 31.8552 12.1564C29.6056 10.7248 27.6564 9.99927 26.0612 9.99927C23.8508 9.99927 22.2355 11.4207 21.1236 14.345C19.8041 19.0425 20.2909 23.604 22.5321 27.5393L22.6501 27.745C23.1607 28.6321 23.4173 29.1547 23.2016 30.4611C22.0244 37.6035 24.1233 42.9302 29.6192 46.7454L29.6056 37.4553C29.6056 34.2265 32.01 31.5556 35.1212 31.1215V26.3752C34.2318 26.0202 33.5998 25.1547 33.5998 24.1403C33.5998 22.813 34.6804 21.7323 36.0084 21.7323C37.3365 21.7323 38.4168 22.8129 38.4168 24.1403C38.4168 25.1548 37.7849 26.0203 36.8957 26.3752V31.1215C40.0066 31.5556 42.4113 34.2266 42.4113 37.4553V46.7356C47.8967 42.9221 49.9914 37.5982 48.8149 30.4612C48.5995 29.155 48.8561 28.6324 49.3667 27.7451L49.4848 27.5394C51.7257 23.604 52.2124 19.0425 50.8931 14.345Z" fill="#546E7A"/>
</svg>