<svg xmlns="http://www.w3.org/2000/svg" width="55" height="55" viewBox="0 0 55 55" fill="none">
  <path d="M21.7732 12.0766C21.3272 11.904 21.1055 11.4026 21.2784 10.9564C21.451 10.5106 21.9526 10.2868 22.399 10.4614C25.6881 11.7355 29.3102 11.7365 32.5994 10.4614C33.0451 10.2868 33.5473 10.5106 33.72 10.9564C33.893 11.4025 33.6712 11.9039 33.2253 12.0766C31.379 12.7922 29.4391 13.1502 27.4995 13.1502C25.5593 13.1502 23.6195 12.7922 21.7732 12.0766ZM54.3542 21.8487C54.3542 22.3271 53.9666 22.7148 53.488 22.7148H46.4824C46.0349 24.3636 45.379 25.9585 44.5123 27.4798L44.3725 27.724C43.9049 28.5356 43.8206 28.682 43.969 29.5797C45.4221 38.3955 42.6946 45.2701 35.8623 50.0135C35.5445 50.2313 35.1805 50.3449 34.8054 50.3449C34.3081 50.3449 33.8207 50.1413 33.4681 49.7874C33.1171 49.4341 32.9252 48.9631 32.9282 48.4619V37.8674C32.9282 34.8739 30.493 32.4384 27.4995 32.4384C24.5058 32.4384 22.0706 34.8739 22.0706 37.8674V48.4673C22.0732 48.9631 21.8816 49.4341 21.5305 49.7874C20.9116 50.4093 19.8697 50.5157 19.1404 50.0164C12.3039 45.2701 9.57655 38.3956 11.0296 29.5798C11.178 28.6821 11.0937 28.5356 10.6265 27.7241L10.4861 27.4799C9.61984 25.9578 8.96382 24.3636 8.5163 22.7149H1.51089C1.03232 22.7149 0.644531 22.3272 0.644531 21.8488C0.644531 21.3701 1.03232 20.9825 1.51089 20.9825H8.1313C7.55595 17.7698 7.74232 14.3812 8.71557 10.9401C8.72244 10.9162 8.73007 10.8924 8.73877 10.8696C10.2949 6.74567 12.7871 4.65503 16.1466 4.65503C18.3112 4.65503 20.8499 5.56532 23.6937 7.36217C26.1153 8.27955 28.8828 8.27955 31.3047 7.36217C34.1482 5.56522 36.6871 4.65503 38.8517 4.65503C42.2112 4.65503 44.7039 6.74567 46.2597 10.8696C46.2683 10.8924 46.2761 10.9163 46.2829 10.9401C47.2562 14.3812 47.4423 17.7698 46.8671 20.9825H53.4878C53.9666 20.9823 54.3542 21.37 54.3542 21.8487ZM9.8956 20.9823H22.953V19.9442C22.953 19.0709 23.6642 18.3598 24.5382 18.3598H30.4605C31.3344 18.3598 32.0456 19.0709 32.0456 19.9442V20.9823H45.1031C45.6988 17.9447 45.5474 14.725 44.6258 11.4466C43.3328 8.04236 41.4437 6.38731 38.8517 6.38731C37.003 6.38731 34.7518 7.22284 32.1605 8.87155C32.1126 8.90099 32.0615 8.92795 32.0086 8.94825C29.1401 10.0592 25.8584 10.0592 22.9899 8.94825C22.9368 8.92806 22.8858 8.90109 22.8377 8.87155C20.2464 7.22284 17.9953 6.38731 16.1466 6.38731C13.5546 6.38731 11.6659 8.04226 10.3727 11.4466C9.45119 14.725 9.29994 17.9447 9.8956 20.9823ZM24.6855 20.0923V23.6049H30.3131V20.0923H24.6855ZM44.6747 22.7148H32.0456V23.7522C32.0456 24.6262 31.3344 25.3372 30.4605 25.3372H24.5382C23.6642 25.3372 22.953 24.6262 22.953 23.7522V22.7148H10.3238C10.7267 24.0641 11.2792 25.3718 11.9917 26.6223L12.1277 26.8593C12.7087 27.8685 12.9772 28.4175 12.7388 29.8616C11.385 38.0739 13.8007 44.2002 20.124 48.5903C20.1774 48.6273 20.2542 48.6145 20.3018 48.5658C20.3271 48.5401 20.3382 48.5114 20.338 48.4714V37.8674C20.338 33.919 23.5504 30.7058 27.4994 30.7058C31.4483 30.7058 34.6607 33.919 34.6607 37.8674V48.4673C34.6605 48.5114 34.6715 48.5401 34.6966 48.5658C34.7442 48.6133 34.8153 48.6302 34.8785 48.5881C41.1977 44.2002 43.6134 38.0739 42.2592 29.8616C42.0211 28.4166 42.2901 27.8674 42.8712 26.8587L43.0068 26.6232C43.7193 25.3718 44.2718 24.0641 44.6747 22.7148Z" fill="#546E7A"/>
</svg>