<svg xmlns="http://www.w3.org/2000/svg" width="55" height="55" viewBox="0 0 55 55" fill="none">
  <g clip-path="url(#clip0_16164_1254)">
    <path d="M34.6425 8.01626C34.8155 8.46217 34.5939 8.96351 34.148 9.13635C31.9857 9.97403 29.7141 10.3925 27.4421 10.3925C25.1702 10.3925 22.8983 9.97403 20.7362 9.13635C20.2903 8.96362 20.0688 8.46228 20.2416 8.01626C20.4142 7.57036 20.9153 7.34885 21.3617 7.52159C25.2833 9.04042 29.6018 9.04042 33.5226 7.52159C33.9689 7.34885 34.47 7.57036 34.6425 8.01626ZM24.6646 24.7374C24.6646 25.1178 24.4162 25.4535 24.0529 25.5653L20.1343 26.769L18.9303 30.6879C18.8184 31.0513 18.4829 31.2994 18.1026 31.2994C17.7221 31.2994 17.3863 31.0512 17.2746 30.6879L16.0709 26.769L12.152 25.5653C11.7887 25.4535 11.5404 25.1178 11.5404 24.7374C11.5404 24.3572 11.7887 24.0215 12.152 23.9095L16.0709 22.7056L17.2746 18.7869C17.3863 18.4235 17.7221 18.1753 18.1026 18.1753C18.4829 18.1753 18.8184 18.4236 18.9303 18.7869L20.1343 22.7056L24.0529 23.9095C24.4162 24.0215 24.6646 24.3572 24.6646 24.7374ZM20.8501 24.7374L19.1869 24.2265C18.9127 24.1422 18.6979 23.9276 18.6136 23.653L18.1027 21.99L17.5919 23.653C17.5075 23.9276 17.2928 24.1422 17.0185 24.2265L15.3553 24.7374L17.0185 25.2482C17.2928 25.3325 17.5075 25.5472 17.5919 25.8217L18.1027 27.4847L18.6136 25.8217C18.6979 25.5472 18.9127 25.3325 19.1869 25.2482L20.8501 24.7374ZM54.0888 33.8277C53.0706 38.9129 49.6607 43.1749 44.9437 45.2985C43.2906 48.6338 40.7026 51.5487 37.2298 53.9594C36.5943 54.3953 35.7813 54.4408 35.1032 54.081C34.4254 53.7212 34.0069 53.0226 34.0111 52.2572V39.7435C34.0111 37.7341 33.3097 36.0569 31.9826 34.8935C30.7924 33.8494 29.1796 33.2745 27.4422 33.2745C24.2781 33.2745 20.873 35.2989 20.873 39.7436V52.2624C20.8773 53.0228 20.4589 53.7214 19.7811 54.0812C19.477 54.2425 19.1459 54.3222 18.8162 54.3222C18.4103 54.3222 18.0067 54.2011 17.6585 53.9624C9.63893 48.3953 6.43958 40.3275 8.14512 29.9797C8.32913 28.8639 8.21236 28.6607 7.64958 27.6838L7.48479 27.3968C5.51629 23.9401 4.47333 20.1726 4.35914 16.1959L1.2091 15.2281C0.845908 15.1165 0.597656 14.7805 0.597656 14.4003C0.597656 14.02 0.845908 13.6844 1.2091 13.5726L4.50706 12.5592C4.67775 11.0429 4.97746 9.50492 5.40833 7.98178C5.41499 7.95793 5.42272 7.93473 5.43143 7.91163C6.81362 4.24973 8.84454 1.9494 11.4681 1.07488C14.5163 0.0597396 18.3543 0.99474 22.8771 3.85571C25.7836 4.95904 29.1009 4.95904 32.0075 3.85571C36.5304 0.994955 40.3685 0.0593099 43.4163 1.07488C46.0401 1.9494 48.071 4.24973 49.4528 7.91163C49.4614 7.93473 49.4691 7.95826 49.476 7.98178C50.6203 12.0289 50.8428 16.0077 50.1539 19.8172C53.6253 23.5856 55.0986 28.7855 54.0888 33.8277ZM4.41221 14.4005L7.79718 15.4401C8.07164 15.5245 8.28627 15.7394 8.37081 16.0135L9.41033 19.3985L10.45 16.0135C10.5344 15.7394 10.7491 15.5245 11.0234 15.4401L14.4086 14.4005L11.0234 13.3605C10.749 13.2762 10.5344 13.0614 10.45 12.7871L9.41033 9.40233L8.37081 12.7871C8.28627 13.0614 8.07164 13.2762 7.79718 13.3605L4.41221 14.4005ZM43.32 44.6694C36.43 33.3419 40.5786 28.9782 44.5984 24.761C46.1059 23.1795 47.5287 21.6826 48.4014 19.8083C49.1083 16.1816 48.9127 12.3735 47.8193 8.48881C46.6315 5.35854 44.9659 3.41689 42.8686 2.71811C40.3214 1.86937 36.9565 2.75968 32.8629 5.36391C32.8151 5.3942 32.7641 5.41998 32.7112 5.4405C29.3623 6.73805 25.5219 6.73805 22.1731 5.4405C22.1202 5.42009 22.069 5.3942 22.0213 5.36391C17.9276 2.75968 14.561 1.87001 12.0156 2.71789C9.91833 3.41689 8.25265 5.35854 7.06467 8.48881C6.73563 9.65831 6.48824 10.8354 6.32185 12.0019L6.84961 11.8397L8.58243 6.19911C8.69404 5.83571 9.02995 5.58756 9.41022 5.58756C9.79061 5.58756 10.1264 5.83581 10.238 6.19911L11.9707 11.8397L17.6116 13.5727C17.975 13.6845 18.2231 14.0201 18.2231 14.4005C18.2231 14.7806 17.975 15.1166 17.6116 15.2282L11.9707 16.961L10.238 22.6016C10.1264 22.9649 9.79061 23.213 9.41022 23.213C9.02995 23.213 8.69404 22.9648 8.58243 22.6016L6.84961 16.961L6.11151 16.7341C6.29982 20.2086 7.26061 23.5037 8.98977 26.5401L9.14983 26.8194C9.81757 27.9784 10.1265 28.6087 9.85377 30.2617C8.24394 40.0282 11.1184 47.3143 18.6415 52.5368C18.7758 52.6289 18.9046 52.5854 18.9694 52.5512C19.0339 52.5171 19.1421 52.4345 19.1411 52.2671V39.7435C19.1411 34.3597 23.3172 31.5425 27.4421 31.5425C31.5669 31.5425 35.7429 34.3597 35.7429 39.7435V52.2623C35.742 52.4345 35.85 52.517 35.9146 52.5511C35.9793 52.5848 36.1081 52.6282 36.2466 52.534C39.4225 50.3289 41.795 47.6815 43.32 44.6694ZM49.4161 21.5949C48.4391 23.2418 47.1277 24.6176 45.852 25.956C42.1046 29.8869 38.8448 33.3082 44.1319 42.6413C44.6386 41.2613 45.1006 39.9559 45.5184 38.7248L43.4321 35.6677C43.1625 35.2725 43.2642 34.7342 43.6591 34.4645C44.0541 34.1943 44.5927 34.2968 44.8624 34.6913L46.2011 36.6528C47.5841 32.33 48.3314 29.079 48.4239 26.9555C48.4442 26.4909 48.8276 26.1275 49.2882 26.1275C49.3011 26.1275 49.3139 26.1277 49.3269 26.1283C49.8045 26.1492 50.175 26.5535 50.154 27.0312C50.1056 28.1404 49.9007 29.4997 49.5438 31.1087L50.698 30.5986C51.1357 30.4057 51.6467 30.6033 51.84 31.041C52.0332 31.4782 51.8353 31.9896 51.3978 32.1829L49.023 33.2319C48.3171 35.8763 47.2818 39.0652 45.9047 42.8373C49.2399 40.7691 51.6075 37.3997 52.3909 33.4878C53.2381 29.2555 52.1295 24.8957 49.4161 21.5949Z" fill="#546E7A"/>
  </g>
  <defs>
    <clipPath id="clip0_16164_1254">
      <rect width="55" height="55" fill="white"/>
    </clipPath>
  </defs>
</svg>