<svg xmlns="http://www.w3.org/2000/svg" width="55" height="55" viewBox="0 0 55 55" fill="none"><g clip-path="url(#clip0_16014_1907)"><path d="M53.5925 44.1523L47.5509 40.6641V14.0654C47.5509 13.756 47.3858 13.4701 47.1179 13.3156L45.2351 12.2289C45.1304 11.3449 44.9462 10.4461 44.6728 9.54606C43.0827 4.31235 39.1085 0.657325 35.0078 0.657325C34.3613 0.657325 33.7227 0.751642 33.1103 0.937589C31.7836 1.34064 30.6396 2.14727 29.7399 3.28261L25.372 0.760558C25.1043 0.605978 24.7741 0.605978 24.5061 0.760558L10.5911 8.79464C10.3234 8.94922 10.1583 9.23518 10.1583 9.54434V18.4726L8.57383 17.5579C8.3057 17.4033 7.97549 17.4033 7.70769 17.5579L3.1632 20.1817C2.89486 20.3364 2.72997 20.6221 2.72997 20.9315V36.8812L1.40567 37.6459C1.13819 37.8003 0.972656 38.0861 0.972656 38.3956V53.4896C0.972656 53.9678 1.36013 54.3555 1.8388 54.3555H53.1598C53.6382 54.3555 54.0257 53.9679 54.0257 53.4896V44.9022C54.0256 44.5928 53.8602 44.3068 53.5925 44.1523ZM33.6131 2.59436C34.0626 2.45804 34.5315 2.38864 35.0077 2.38864C38.2994 2.38864 41.6674 5.61055 43.0159 10.0493C44.5976 15.2545 42.9523 20.3799 39.3497 21.4746C38.9004 21.6108 38.4313 21.6802 37.9553 21.6802C34.6638 21.6802 31.2956 18.4583 29.9473 14.0195C29.1664 11.4483 29.1454 8.82547 29.889 6.63342C30.5984 4.54299 31.9212 3.10859 33.6131 2.59436ZM28.2903 14.523C29.8802 19.7566 33.8546 23.4117 37.9553 23.4117C38.6021 23.4117 39.2406 23.3176 39.853 23.1314C43.181 22.1202 45.2288 18.5439 45.3331 14.2845L45.8191 14.5652V39.6645L26.1907 28.332V3.23298L28.8085 4.7443C28.5967 5.16185 28.4094 5.60582 28.2495 6.07697C27.3899 8.60901 27.4045 11.6084 28.2903 14.523ZM24.4592 2.78739V27.3322L22.2971 26.0838C22.0292 25.9292 21.6992 25.9292 21.4312 26.0838L11.8897 31.5927V10.0443L24.4592 2.78739ZM4.46172 21.4313L8.1407 19.3075L10.1582 20.4721V32.5925L4.46172 35.8812V21.4313ZM20.9983 28.3333V39.5103L2.70451 44.7912V38.8955L20.9983 28.3333ZM2.70462 46.5937L20.9985 41.313V52.6236H2.70462V46.5937ZM47.6174 52.6236H43.0454V44.3282L47.6174 46.5296V52.6236ZM41.3135 52.6236H36.7416V41.2934L41.3135 43.4945V52.6236ZM52.2938 52.6236H49.3489V45.9854C49.3489 45.6527 49.1585 45.3495 48.859 45.205L36.2512 39.1352C35.9822 39.0061 35.6665 39.0234 35.4149 39.1822C35.1627 39.3407 35.0099 39.6176 35.0099 39.9155V52.6235H22.73V28.3333L52.2939 45.4021L52.2938 52.6236ZM20.3245 8.56948C20.0857 8.15527 20.2278 7.62568 20.6417 7.38677L21.9612 6.62515C22.3764 6.38484 22.9042 6.52804 23.1441 6.94193C23.3827 7.35615 23.241 7.88585 22.8267 8.12476L21.5074 8.88659C21.3709 8.96523 21.2219 9.00282 21.0753 9.00282C20.7758 9.00272 20.4852 8.84728 20.3245 8.56948ZM13.5225 12.4969C13.284 12.0827 13.4256 11.5531 13.8398 11.3142L15.1592 10.5524C15.574 10.3124 16.1021 10.4554 16.3419 10.8693C16.5812 11.2835 16.439 11.8132 16.0251 12.0522L14.7057 12.8138C14.5693 12.8926 14.4202 12.9302 14.2735 12.9302C13.9738 12.9302 13.6832 12.7746 13.5225 12.4969ZM20.3245 12.4507C20.0857 12.0365 20.2278 11.5069 20.6417 11.268L21.9612 10.5063C22.3764 10.2662 22.9042 10.4094 23.1441 10.8231C23.3827 11.2374 23.241 11.767 22.8267 12.0059L21.5074 12.7676C21.3709 12.8464 21.2219 12.8838 21.0753 12.8838C20.7758 12.8839 20.4852 12.7284 20.3245 12.4507ZM13.5225 16.3782C13.284 15.964 13.4256 15.4344 13.8398 15.1954L15.1592 14.4338C15.574 14.1939 16.1021 14.337 16.3419 14.7505C16.5812 15.1648 16.439 15.6943 16.0251 15.9334L14.7057 16.6949C14.5693 16.7737 14.4202 16.8112 14.2735 16.8112C13.9738 16.8114 13.6832 16.6559 13.5225 16.3782ZM20.3245 16.332C20.0857 15.9178 20.2278 15.3883 20.6417 15.1492L21.9612 14.3878C22.3764 14.1476 22.9042 14.2907 23.1441 14.7046C23.3827 15.1188 23.241 15.6484 22.8267 15.8873L21.5074 16.649C21.3709 16.7277 21.2219 16.7653 21.0753 16.7653C20.7758 16.7651 20.4852 16.6097 20.3245 16.332ZM13.5225 20.2596C13.284 19.8452 13.4256 19.3156 13.8398 19.0767L15.1592 18.315C15.574 18.0751 16.1021 18.218 16.3419 18.6318C16.5812 19.046 16.439 19.5757 16.0251 19.8147L14.7057 20.5763C14.5693 20.6551 14.4202 20.6926 14.2735 20.6926C13.9738 20.6925 13.6832 20.5371 13.5225 20.2596ZM13.5225 24.1407C13.284 23.7265 13.4256 23.1969 13.8398 22.958L15.1592 22.1963C15.574 21.9559 16.1021 22.0994 16.3419 22.5131C16.5812 22.9273 16.439 23.4569 16.0251 23.6959L14.7057 24.4576C14.5693 24.5365 14.4202 24.5737 14.2735 24.5737C13.9738 24.5737 13.6832 24.4184 13.5225 24.1407ZM20.3245 20.2133C20.0857 19.7989 20.2278 19.2693 20.6417 19.0303L21.9612 18.2687C22.3764 18.0289 22.9042 18.1719 23.1441 18.5856C23.3827 18.9998 23.241 19.5293 22.8267 19.7683L21.5074 20.5301C21.3709 20.6088 21.2219 20.6463 21.0753 20.6463C20.7758 20.6464 20.4852 20.4908 20.3245 20.2133ZM13.5225 28.022C13.284 27.6076 13.4256 27.0781 13.8398 26.8392L15.1592 26.0774C15.574 25.8371 16.1021 25.9806 16.3419 26.3942C16.5812 26.8085 16.439 27.338 16.0251 27.5772L14.7057 28.3387C14.5693 28.4176 14.4202 28.455 14.2735 28.455C13.9738 28.4551 13.6832 28.2996 13.5225 28.022ZM20.3245 24.0939C20.0857 23.68 20.2278 23.1502 20.6417 22.9112L21.9612 22.1496C22.3764 21.9104 22.9047 22.0531 23.1441 22.4672C23.3827 22.8811 23.241 23.4108 22.8267 23.6499L21.5074 24.4114C21.3709 24.49 21.2219 24.5274 21.0753 24.5274C20.7758 24.5273 20.485 24.3718 20.3245 24.0939ZM7.35094 22.4193V32.2651C7.35094 32.7436 6.96347 33.1311 6.4848 33.1311C6.00666 33.1311 5.61908 32.7436 5.61908 32.2651V22.4193C5.61908 21.9409 6.00655 21.5535 6.4848 21.5535C6.96347 21.5535 7.35094 21.9409 7.35094 22.4193ZM31.7101 10.53C31.7357 10.5942 31.759 10.6444 31.7737 10.6912C31.7718 10.6993 31.7698 10.7083 31.7672 10.7184C31.4678 11.9311 31.4863 13.1633 31.8231 14.3808C32.1555 15.5833 32.8049 16.7829 33.7555 17.9484C34.0161 18.2655 34.4086 18.4455 34.7843 18.4122C35.3133 18.3683 35.7148 17.9424 35.7392 17.4011L35.8812 14.3911C35.8955 14.0961 36.0023 14.0961 36.0804 14.0961C36.1473 14.0961 36.2615 14.1119 36.4207 14.187C37.0432 14.4791 37.5744 15.2857 37.557 15.9133L37.4751 18.9426C37.4699 19.2846 37.6101 19.6285 37.8623 19.8881C38.1018 20.1329 38.4062 20.2678 38.7194 20.2678C38.8119 20.2678 38.9039 20.2557 38.993 20.2316C40.1539 19.9165 40.9823 19.2454 41.4549 18.2361C41.8857 17.3152 42.0002 16.1688 41.8051 14.7296L41.8139 14.7183C42.2775 14.1067 42.5579 13.359 42.6473 12.4965C42.7261 11.7412 42.657 10.9035 42.4425 10.0064C42.4381 9.98842 42.4333 9.97027 42.4278 9.95254C42.0762 8.81419 41.5238 7.97372 40.785 7.45423C40.0496 6.93828 39.1435 6.7402 38.0896 6.8719C37.6081 6.80014 37.0398 6.51364 36.5432 6.09008C35.5839 5.01199 34.7432 4.38927 33.9765 4.18646C33.785 4.13586 33.5942 4.11019 33.4099 4.11019C32.873 4.11019 32.1133 4.3231 31.5447 5.33759C31.5284 5.36681 31.5134 5.39699 31.5005 5.42793C31.2026 6.14433 31.0626 6.9298 31.0853 7.76242C31.1088 8.62352 31.3081 9.52672 31.6763 10.4463L31.7101 10.53ZM33.0793 6.14229C33.1979 5.94302 33.3089 5.84183 33.4098 5.84183C33.4446 5.84183 33.4859 5.84838 33.5333 5.86052C33.7752 5.92476 34.3249 6.19417 35.284 7.28064C35.3087 7.30867 35.3354 7.3351 35.3634 7.3597C36.1876 8.07975 37.1286 8.52243 38.0142 8.60697C38.0835 8.61385 38.1539 8.61181 38.2219 8.6016C38.878 8.50546 39.3923 8.5929 39.7892 8.87112C40.2017 9.16116 40.5297 9.68775 40.7648 10.4368C40.9287 11.1324 40.9822 11.7647 40.9251 12.3176C40.8689 12.861 40.7032 13.3167 40.4327 13.6736L40.4001 13.7167C40.1343 14.0621 40.0063 14.3627 40.089 14.959C40.2363 16.0441 40.1679 16.8997 39.8868 17.5026C39.7338 17.828 39.5183 18.0794 39.2259 18.2673L39.2882 15.9603C39.3243 14.6432 38.4081 13.207 37.1565 12.6193C36.7961 12.4503 36.4341 12.3645 36.0804 12.3645C34.9993 12.3645 34.2062 13.1642 34.1516 14.3091L34.1002 15.3914C33.8303 14.8988 33.6269 14.4069 33.4922 13.9197C33.2357 12.9916 33.2205 12.0545 33.4477 11.1368C33.5912 10.5644 33.4571 10.2329 33.3161 9.88207L33.2842 9.80301C32.991 9.07329 32.8333 8.37097 32.8162 7.71559C32.8006 7.14797 32.8893 6.61892 33.0793 6.14229Z" fill="url(#paint0_linear_16014_1907)"></path></g><defs><linearGradient id="paint0_linear_16014_1907" x1="16.8263" y1="55.8774" x2="42.9184" y2="6.3781" gradientUnits="userSpaceOnUse"><stop offset="0.0437" stop-color="#0EB7BC"></stop><stop offset="0.7537" stop-color="#80EDC4"></stop></linearGradient><clipPath id="clip0_16014_1907"><rect width="55" height="55" fill="white"></rect></clipPath></defs></svg>