<svg xmlns="http://www.w3.org/2000/svg" width="55" height="55" viewBox="0 0 55 55" fill="none">
  <g clip-path="url(#clip0_16164_1269)">
    <path d="M53.4789 28.7551H41.2517C43.19 25.0315 43.5699 20.7869 42.3395 16.4352C42.3327 16.4115 42.325 16.388 42.3163 16.3654C41.0882 13.1101 39.11 11.4599 36.4367 11.4599C34.7152 11.4599 32.7883 12.1472 30.5477 13.5609C29.6534 13.8967 28.6922 14.0646 27.7303 14.0669C30.214 10.9149 33.3466 8.39167 37.1129 6.50781C37.5732 6.9274 38.1796 7.17898 38.8327 7.17898C39.1111 7.17898 39.3866 7.1329 39.6515 7.04299L43.8289 5.6189C44.4719 5.39986 44.9918 4.94203 45.293 4.32962C45.5939 3.7171 45.6392 3.02584 45.4199 2.3826C45.0678 1.34974 44.0963 0.656006 43.0027 0.656006C42.7242 0.656006 42.4486 0.70166 42.1839 0.79168L38.0064 2.21545C36.8328 2.6156 36.1403 3.79197 36.3038 4.97737C31.9834 7.14364 28.4569 10.0991 25.7357 13.8209C25.4455 13.7485 25.1583 13.6658 24.8791 13.5609C22.6384 12.1474 20.7116 11.4599 18.99 11.4599C16.3169 11.4599 14.3385 13.1101 13.1104 16.3654C13.1018 16.388 13.0941 16.4116 13.0872 16.4352C11.8566 20.787 12.2368 25.0316 14.175 28.7551H1.52218C1.04372 28.7551 0.65625 29.1426 0.65625 29.6211V49.3641C0.65625 52.1103 2.89041 54.3445 5.63665 54.3445H49.3646C52.1108 54.3445 54.3448 52.1103 54.3448 49.3641V29.621C54.3448 29.1426 53.9572 28.7551 53.4789 28.7551ZM38.565 3.85471L42.7427 2.43104C42.8272 2.40215 42.9146 2.38775 43.0026 2.38775C43.3551 2.38775 43.668 2.61033 43.7807 2.94119C43.8507 3.14647 43.8357 3.36841 43.7388 3.56553C43.6418 3.76286 43.4754 3.90971 43.2702 3.97953L39.0928 5.40352C38.6717 5.54789 38.1956 5.30705 38.0543 4.89294C37.9089 4.46615 38.1379 4.00037 38.565 3.85471ZM14.7437 16.942C15.7041 14.4187 17.0935 13.1918 18.99 13.1918C20.3719 13.1918 22.0656 13.8237 24.0245 15.0694C24.0722 15.1 24.1232 15.1256 24.1765 15.1461C24.3499 15.2136 24.5289 15.266 24.7062 15.3229C22.6254 18.5756 21.0971 22.3507 20.1363 26.6426C20.1084 26.5997 20.085 26.5525 20.0559 26.5102C19.1329 24.7074 18.5191 22.1928 19.107 21.4219C19.3645 21.0847 20.0058 21.1403 20.4984 21.2459C20.9665 21.3452 21.4264 21.0479 21.5266 20.5806C21.6267 20.1127 21.3288 19.6526 20.8613 19.5524C19.0808 19.1716 18.1757 19.7874 17.7302 20.3718C16.0764 22.5398 18.4426 27.1612 18.544 27.3569C18.5624 27.3918 18.583 27.426 18.6058 27.4581C19.2706 28.3981 19.5061 29.764 19.3059 31.5178C18.5384 35.3093 18.6258 38.5092 19.5656 41.0288C19.6954 41.3775 20.0256 41.5925 20.3771 41.5925C20.4774 41.5925 20.5796 41.5751 20.6794 41.5375C21.1273 41.3705 21.3553 40.8717 21.188 40.4236C20.3776 38.2513 20.3082 35.43 20.9713 32.0428C22.565 29.9511 25.0787 28.703 27.7108 28.703C30.3452 28.703 32.864 29.954 34.4567 32.0503C35.118 35.4339 35.0483 38.2529 34.2386 40.4235C34.0713 40.8716 34.2993 41.3704 34.7474 41.5374C34.847 41.575 34.9492 41.5924 35.0496 41.5924C35.4008 41.5924 35.731 41.3774 35.861 41.0287C36.801 38.5091 36.8883 35.3092 36.1207 31.5177C35.9207 29.7639 36.1561 28.398 36.8209 27.458C36.8437 27.4258 36.8643 27.3917 36.8827 27.3568C36.9863 27.157 39.4042 22.434 37.6413 20.2994C36.9063 19.4103 35.6997 19.2023 34.054 19.6813C31.1112 20.243 28.105 20.4108 25.1166 20.1813C24.6396 20.1448 24.2234 20.5013 24.1868 20.9782C24.1501 21.4549 24.5067 21.8712 24.9837 21.9079C28.1392 22.1506 31.3149 21.971 34.4212 21.374C34.4493 21.3688 34.4771 21.362 34.5043 21.3538C35.0326 21.1972 35.9695 20.995 36.3059 21.4022C36.9212 22.1473 36.309 24.6778 35.3707 26.5101C34.8159 27.3158 34.4813 28.2997 34.3662 29.4487C32.5307 27.8741 30.1631 26.9713 27.7107 26.9713C25.4089 26.9713 23.184 27.7664 21.402 29.1646C22.3044 23.9332 24.014 19.4425 26.5208 15.7185C28.1147 15.9097 29.7568 15.7249 31.2502 15.1461C31.3032 15.1257 31.3544 15.1 31.4024 15.0694C33.3607 13.8236 35.0546 13.1918 36.4364 13.1918C38.3331 13.1918 39.7224 14.4187 40.6827 16.942C41.8319 21.0374 41.4075 25.0131 39.4552 28.4417L39.3518 28.6219C38.8935 29.4171 38.6634 29.8866 38.8572 31.062C39.8732 37.2249 38.0919 41.8364 33.4162 45.1507V37.1813C33.4162 34.0365 30.8579 31.4783 27.7129 31.4783C24.5685 31.4783 22.01 34.0364 22.01 37.1813V45.1507C17.3333 41.8338 15.5535 37.2235 16.5692 31.062C16.7629 29.887 16.5329 29.4175 16.0748 28.6226L15.9711 28.4414C14.0186 25.0132 13.5944 21.0376 14.7437 16.942ZM52.6132 49.364C52.6132 51.1554 51.1559 52.6126 49.3646 52.6126H5.63665C3.84539 52.6126 2.38811 51.1554 2.38811 49.364V30.487H14.9C14.8919 30.5713 14.8797 30.6636 14.8604 30.7801C13.7302 37.6373 15.854 42.9862 21.1772 46.6812C21.8141 47.1181 22.7278 47.0253 23.269 46.4812C23.5765 46.1718 23.7445 45.7598 23.7423 45.3257V37.1813C23.7423 34.9915 25.5237 33.2099 27.7132 33.2099C29.9029 33.2099 31.6845 34.9915 31.6845 37.1813V45.3211C31.6824 45.7601 31.8505 46.1723 32.1579 46.4817C32.4661 46.7914 32.8926 46.969 33.3272 46.969C33.6563 46.969 33.9751 46.8695 34.2536 46.6785C39.5729 42.9862 41.6967 37.6373 40.5661 30.7801C40.5469 30.6636 40.5347 30.5714 40.5265 30.487H52.6133V49.364H52.6132Z" fill="#546E7A"/>
  </g>
  <defs>
    <clipPath id="clip0_16164_1269">
      <rect width="55" height="55" fill="white"/>
    </clipPath>
  </defs>
</svg>