<svg version="1.1" id="Layer_1" xmlns="http://www.w3.org/2000/svg" xmlns:xlink="http://www.w3.org/1999/xlink" x="0px" y="0px"
	 width="100" viewBox="0 0 896 512" enable-background="new 0 0 896 512" xml:space="preserve">
<path fill="#546E7A" opacity="1.000000" stroke="none" 
	d="
M815.880615,397.147766 
	C810.793335,394.374817 805.598206,393.162323 800.317261,392.424683 
	C794.173340,391.566528 791.984314,393.993256 793.075500,400.015228 
	C794.866211,409.897797 800.470398,417.737610 806.798218,425.095734 
	C812.457764,431.676788 818.890503,437.441162 825.963257,442.546875 
	C843.726379,455.369843 841.805725,478.037750 821.846375,486.964447 
	C800.226318,496.633850 777.531250,499.320892 753.985596,495.770660 
	C734.415039,492.819794 716.778564,485.506348 701.236694,473.483734 
	C680.422241,457.382385 656.544617,447.268646 632.599243,437.194183 
	C617.642090,430.901306 603.020203,424.131378 591.994873,411.552643 
	C587.061462,405.924072 582.911316,399.779327 578.563110,392.235657 
	C576.938477,400.590973 576.027710,407.924011 573.485046,414.940857 
	C561.799011,447.189880 540.772583,471.028748 509.909821,485.956238 
	C500.913147,490.307709 491.633545,489.967133 483.487518,483.633240 
	C475.924652,477.752808 473.301849,469.732727 474.273834,460.149017 
	C475.910187,444.014862 474.427032,428.184235 467.567383,413.254456 
	C465.658112,409.099030 463.711304,403.626892 458.499939,403.562866 
	C453.108063,403.496613 451.383331,409.294403 449.643829,413.352325 
	C443.372192,427.983063 440.953705,443.306427 443.046509,459.217346 
	C444.333710,469.003693 441.878265,477.509583 433.747528,483.603241 
	C425.348175,489.898193 416.236328,490.198547 406.936646,485.664703 
	C373.221527,469.227661 351.514832,442.724792 341.463257,406.726288 
	C338.871704,397.445007 338.046875,387.761871 336.629333,378.222656 
	C333.724670,358.676300 330.900177,339.100647 323.782013,320.482819 
	C323.078369,318.642303 322.643799,316.698883 321.868500,314.071777 
	C319.617859,317.201569 319.284180,320.470215 318.285248,323.437714 
	C317.224182,326.589722 316.304962,329.789154 315.285889,332.955627 
	C309.891052,349.717926 309.329712,367.240692 307.006927,384.500580 
	C302.974365,414.465393 289.109558,439.268372 266.364838,459.091461 
	C257.155212,467.118011 247.067612,473.818359 235.676437,478.474792 
	C220.569672,484.650177 203.139267,473.482971 202.760910,457.117645 
	C202.541504,447.627899 203.152100,438.103088 202.590866,428.641388 
	C201.974304,418.246613 198.946152,408.366699 193.164978,399.560272 
	C188.703537,392.764221 185.490524,392.845703 181.042526,399.845032 
	C175.761459,408.155243 173.211990,417.432495 172.187637,427.130371 
	C171.331314,435.237335 171.163910,443.295929 171.904663,451.516296 
	C173.446960,468.631927 161.553146,480.940399 145.217102,480.220459 
	C140.541397,480.014404 136.554855,477.813690 132.615250,475.735138 
	C100.762413,458.929077 79.561295,433.320618 70.068100,398.499847 
	C67.234024,388.104523 66.432892,377.224274 64.592712,366.590454 
	C62.023129,351.741699 60.360134,336.775665 55.653782,322.233582 
	C50.600353,306.619080 44.613766,291.162537 42.358543,274.737152 
	C37.010490,235.785812 59.545448,197.357910 96.134422,183.203735 
	C127.747017,170.974640 156.901001,175.791718 183.515396,196.466736 
	C186.319763,198.645279 188.154144,198.688461 190.844040,196.500931 
	C233.614349,161.718506 296.411774,174.449326 322.619781,223.131042 
	C323.306671,224.406967 323.702057,225.946686 325.548706,226.957611 
	C330.129272,220.969086 334.542450,214.785019 340.011932,209.448273 
	C368.249237,181.896271 415.391113,177.703735 447.864471,199.981705 
	C448.688171,200.546814 449.503723,201.140030 450.385040,201.601868 
	C453.454163,203.210129 455.605042,207.555389 458.950134,206.986710 
	C462.045013,206.460571 464.675049,203.267899 467.535950,201.287277 
	C512.282227,170.308868 573.330078,186.856415 596.412231,236.374786 
	C601.807556,247.949341 604.757935,260.206696 604.251770,273.142242 
	C604.143616,275.906464 603.730835,278.738434 604.739807,281.956909 
	C613.714233,276.108551 622.872437,270.773682 633.180420,268.809326 
	C641.754761,267.175293 646.036194,264.890472 646.592773,254.424759 
	C647.637878,234.773148 656.417114,217.541367 670.461548,203.499771 
	C692.676453,181.289322 719.406616,172.656570 750.334290,178.653427 
	C778.662109,184.146164 798.005310,201.547150 811.914978,226.139557 
	C823.824097,247.194916 837.788513,266.800964 854.053040,284.837402 
	C865.165344,297.160278 876.354797,309.598236 883.002197,325.241455 
	C892.162964,346.799011 896.542908,368.945007 892.709473,392.420502 
	C891.661011,398.841125 890.706238,405.212372 888.607422,411.386597 
	C882.698059,428.770935 861.113281,433.972809 848.106506,420.996185 
	C838.617004,411.528839 828.657104,402.768005 815.880615,397.147766 
M493.751495,462.501038 
	C494.681061,468.274719 497.730652,469.605011 503.908997,466.455994 
	C522.684265,456.886749 537.107178,442.787170 547.562805,424.477448 
	C556.145203,409.447998 558.303345,392.881287 560.003784,376.111420 
	C560.923950,367.036682 561.495544,357.806213 563.684082,349.009064 
	C566.851013,336.278534 571.598145,323.950287 575.194946,311.314850 
	C578.815369,298.596436 583.931763,286.372406 584.122742,272.632568 
	C584.580872,239.664444 559.160095,207.016602 518.681946,205.512405 
	C499.155975,204.786819 482.273499,212.374252 468.480774,226.402863 
	C460.313385,234.709930 456.805420,234.677338 448.733337,226.517242 
	C428.111877,205.670929 397.399597,198.372147 368.917358,213.253403 
	C340.477112,228.112747 328.081268,258.547516 334.627319,287.780426 
	C336.505035,296.165771 339.684052,304.260834 342.287323,312.482391 
	C346.854218,326.905182 351.548950,341.269623 353.522186,356.384186 
	C355.413086,370.867950 356.660248,385.567688 360.167877,399.681000 
	C367.524445,429.280731 385.011902,451.599304 412.198456,465.944489 
	C413.937134,466.861877 415.878815,467.681488 417.800385,467.903595 
	C421.406250,468.320435 423.943726,466.622620 423.240326,462.748505 
	C421.361420,452.399597 422.637909,442.115204 423.808533,431.901154 
	C425.462280,417.471832 429.886566,403.901398 439.467133,392.582947 
	C450.660980,379.358490 466.535126,379.408142 477.757599,392.538666 
	C479.160126,394.179718 480.549286,395.875641 481.656097,397.719360 
	C493.558533,417.547150 496.120514,439.176056 493.751495,462.501038 
M217.704117,203.154846 
	C209.589920,206.912720 202.540665,212.162781 196.362152,218.580338 
	C189.806244,225.389862 184.770874,225.569656 178.240952,218.742691 
	C168.537277,208.597580 156.986145,201.509186 143.316681,198.505753 
	C115.718391,192.441849 88.024361,203.853973 72.525963,227.529297 
	C63.454132,241.387421 59.346985,256.780090 62.184494,273.170349 
	C63.845463,282.764587 67.670753,291.972656 70.334953,301.407379 
	C74.254456,315.287567 79.617310,328.747345 81.508194,343.218689 
	C83.554909,358.882690 85.382172,374.659241 88.861282,390.034607 
	C95.983795,421.511353 114.906670,444.146057 143.614883,458.679291 
	C148.398239,461.100830 152.037415,458.917084 151.608871,453.406555 
	C150.986526,445.404114 151.185867,437.467773 151.649490,429.478485 
	C152.495453,414.900024 156.336700,401.227325 164.160645,388.930481 
	C176.263382,369.908783 195.889099,369.173065 209.084900,387.029205 
	C212.559097,391.730377 215.143341,396.962982 217.168671,402.463593 
	C223.222855,418.906158 223.781311,435.975006 223.105453,453.210205 
	C222.858704,459.502930 225.444977,461.318481 231.021149,458.548096 
	C250.012115,449.112976 264.899292,435.302155 275.591064,416.863281 
	C283.658722,402.949921 286.370758,387.720001 288.046112,372.079102 
	C289.124603,362.010773 289.912109,351.817535 292.173615,341.989441 
	C296.725586,322.207611 304.112305,303.226196 309.939911,283.791809 
	C313.745239,271.101532 314.203949,258.434784 310.544373,245.912735 
	C298.931152,206.175507 256.471710,186.475449 217.704117,203.154846 
M772.675354,401.682404 
	C769.659851,383.817078 781.931091,371.544220 798.315796,372.411255 
	C806.840637,372.862366 814.783264,374.622101 822.447205,377.917206 
	C837.024841,384.184814 849.526733,393.455139 860.464966,404.916687 
	C864.677490,409.330750 868.939758,408.455933 870.385071,402.731049 
	C875.298889,383.267151 875.109497,363.897705 868.912231,344.669250 
	C864.230164,330.142242 855.953796,317.939514 846.159729,306.339142 
	C833.726929,291.613342 819.975830,277.915070 809.930115,261.233612 
	C803.146057,249.968246 796.112671,238.849335 789.020813,227.773758 
	C772.659729,202.222061 742.458252,191.233170 713.229004,200.071167 
	C682.388367,209.396423 662.300659,240.338974 666.399170,272.206635 
	C667.468994,280.524872 663.546997,285.110718 655.082092,285.378845 
	C648.212830,285.596436 641.428406,286.715607 634.958435,288.809021 
	C587.723083,304.092468 573.765320,365.983459 609.386169,400.625092 
	C618.950867,409.926819 630.925232,414.301544 642.596497,419.432892 
	C665.744141,429.609833 689.201782,439.092834 709.492859,454.728607 
	C725.051453,466.717651 742.301575,474.754333 762.204651,476.581146 
	C779.475220,478.166290 796.062561,475.727295 812.047058,469.217773 
	C818.560303,466.565308 818.788452,462.604828 813.007874,458.347687 
	C807.094238,453.992523 801.439331,449.318542 796.424255,443.955750 
	C785.272461,432.030731 775.712891,419.153473 772.675354,401.682404 
z"/>
<path fill="#546E7A" opacity="1.000000" stroke="none" 
	d="
M627.134644,142.089081 
	C627.204163,144.709702 628.045410,146.715622 628.596619,148.802322 
	C630.218323,154.942337 627.382568,160.155090 621.701233,161.776199 
	C615.968506,163.411972 610.886658,160.538544 609.278687,154.134903 
	C606.607849,143.498657 604.336792,132.762360 601.867188,122.075142 
	C598.809570,108.843506 595.691650,95.625732 592.656677,82.388931 
	C590.656860,73.667000 588.614014,64.950699 586.860474,56.177921 
	C585.576050,49.752068 588.675293,45.043579 594.604919,43.657608 
	C599.863708,42.428417 604.916443,45.707726 606.347229,51.814739 
	C611.085388,72.038124 615.627625,92.307358 620.273926,112.552345 
	C622.503418,122.266724 624.797791,131.966202 627.134644,142.089081 
z"/>
<path fill="#546E7A" opacity="1.000000" stroke="none" 
	d="
M710.477539,59.781342 
	C711.908569,65.596977 708.440796,69.766083 706.526611,74.211388 
	C694.554871,102.013054 682.374207,129.725113 670.172913,157.427338 
	C666.353577,166.098862 657.782166,168.036850 652.390076,161.604782 
	C649.843933,158.567551 649.077271,155.297775 650.780945,151.426315 
	C664.112244,121.130516 677.358582,90.797363 690.637268,60.478420 
	C692.538757,56.137051 695.185791,52.546318 700.456238,52.483898 
	C705.294617,52.426598 708.656860,54.809620 710.477539,59.781342 
z"/>
<path fill="#546E7A" opacity="1.000000" stroke="none" 
	d="
M572.367432,179.469406 
	C565.980347,183.340836 562.098083,182.894913 557.601379,177.683746 
	C535.945496,152.586914 514.328491,127.456459 492.743835,102.298347 
	C488.370514,97.201012 488.639374,91.687607 493.202454,87.750488 
	C497.695374,83.873894 503.518677,84.325706 507.787506,89.276253 
	C529.539185,114.501587 551.236938,139.773697 572.875610,165.096100 
	C577.402222,170.393341 577.196167,173.634323 572.367432,179.469406 
z"/>
</svg>