<svg xmlns="http://www.w3.org/2000/svg" width="55" height="55" viewBox="0 0 55 55" fill="none">
  <path d="M21.3904 22.6196C21.635 23.0306 21.5005 23.5618 21.0893 23.8064C20.4675 24.1769 19.7732 24.3591 19.0825 24.3591C18.1705 24.3591 17.2647 24.0419 16.5365 23.4214C15.2573 22.3316 14.8142 20.5495 15.4332 18.9874C15.6093 18.5428 16.1121 18.3245 16.5576 18.5016C17.002 18.6778 17.2196 19.1812 17.0433 19.6256C16.6968 20.4986 16.9445 21.4943 17.6592 22.1034C18.3738 22.7123 19.3965 22.7993 20.2034 22.3184C20.6152 22.0742 21.1463 22.2088 21.3904 22.6196ZM49.7318 10.4704C49.7318 11.9426 48.534 13.1401 47.0619 13.1401C45.5892 13.1401 44.392 11.9426 44.392 10.4704C44.392 8.99843 45.5892 7.80057 47.0619 7.80057C48.534 7.80057 49.7318 8.99843 49.7318 10.4704ZM47.9998 10.4704C47.9998 9.9533 47.5789 9.53253 47.062 9.53253C46.5447 9.53253 46.1238 9.9533 46.1238 10.4704C46.1238 10.9875 46.5447 11.4083 47.062 11.4083C47.5789 11.4083 47.9998 10.9875 47.9998 10.4704ZM26.7309 31.5544C26.7309 33.0264 25.5337 34.2241 24.061 34.2241C22.5895 34.2241 21.3914 33.0264 21.3914 31.5544C21.3914 30.0823 22.5894 28.8847 24.061 28.8847C25.5337 28.8847 26.7309 30.0823 26.7309 31.5544ZM24.9992 31.5544C24.9992 31.0373 24.5781 30.6164 24.0612 30.6164C23.544 30.6164 23.1235 31.0373 23.1235 31.5544C23.1235 32.0717 23.5439 32.4926 24.0612 32.4926C24.5781 32.4926 24.9992 32.0717 24.9992 31.5544ZM6.5849 4.39271C6.5849 2.92061 7.78212 1.72285 9.25455 1.72285C10.7266 1.72285 11.9245 2.92061 11.9245 4.39271C11.9245 5.86472 10.7266 7.06226 9.25455 7.06226C7.78201 7.06226 6.5849 5.86472 6.5849 4.39271ZM8.31644 4.39271C8.31644 4.90974 8.73774 5.33062 9.25444 5.33062C9.77157 5.33062 10.1927 4.90974 10.1927 4.39271C10.1927 3.87537 9.77157 3.45449 9.25444 3.45449C8.73774 3.45449 8.31644 3.87537 8.31644 4.39271ZM49.9576 5.96021C49.9576 6.43856 49.5701 6.82614 49.0916 6.82614H42.4262C43.3103 8.30201 43.4952 10.0842 42.9253 11.7148C44.164 13.3238 44.4189 15.4791 43.5524 17.3548C43.1496 18.227 42.5424 18.951 41.806 19.4891C43.1055 24.5751 42.5117 29.5165 40.0645 33.8137L39.9393 34.0322C39.5247 34.752 39.4607 34.8625 39.5889 35.6353C40.8964 43.5711 38.4404 49.76 32.2886 54.0306C31.7414 54.4061 31.0415 54.4452 30.4587 54.1358C29.8756 53.8265 29.5152 53.2252 29.5189 52.5665V43.0753C29.5189 40.4431 27.3772 38.3015 24.7452 38.3015C22.1129 38.3015 19.9708 40.4432 19.9708 43.0753V52.5713C19.9744 53.2252 19.6142 53.8268 19.0309 54.1359C18.7694 54.2744 18.485 54.3428 18.2017 54.3428C17.8526 54.3431 17.505 54.2389 17.2056 54.0332C11.0494 49.76 8.59294 43.5708 9.90112 35.6356C10.0288 34.8625 9.96515 34.752 9.5505 34.0322L9.42438 33.8135C8.20622 31.6743 7.44825 29.3665 7.15338 26.9482C5.94907 26.6905 5.04297 25.6186 5.04297 24.3382C5.04297 23.0319 5.98688 21.9437 7.22771 21.7148C7.44277 20.1765 7.87311 18.3265 8.97117 16.5765C8.58811 15.9166 8.33373 15.1709 8.24854 14.3688C7.98353 11.8686 9.41063 9.54209 11.6975 8.62234C11.9252 7.2018 12.7084 5.92079 13.8533 5.05615C13.6644 4.65676 13.5552 4.21235 13.5552 3.74163C13.5552 2.04082 14.9393 0.657227 16.6398 0.657227H49.0915C49.5699 0.657227 49.9574 1.0448 49.9574 1.52315C49.9574 2.0015 49.57 2.38908 49.0915 2.38908H16.6399C15.8937 2.38908 15.287 2.99591 15.287 3.74174C15.287 4.48757 15.8935 5.09461 16.6399 5.09461H49.0916C49.57 5.0945 49.9576 5.48208 49.9576 5.96021ZM28.2526 9.11734V13.4377H30.1611L31.2003 9.56175C31.3014 9.18352 31.6443 8.92012 32.0364 8.92012C32.4282 8.92012 32.7713 9.1833 32.8726 9.56175L33.9114 13.4377H34.1317V6.82614H17.5061V13.4377H20.6013V9.11734C20.6013 8.63921 20.989 8.25163 21.4676 8.25163C21.9459 8.25163 22.3335 8.63921 22.3335 9.11734V13.4377H26.5207V9.11734C26.5207 8.63921 26.9084 8.25163 27.3868 8.25163C27.865 8.25163 28.2526 8.63921 28.2526 9.11734ZM7.71283 25.2763C8.22964 25.2763 8.65084 24.8555 8.65084 24.3382C8.65084 23.8209 8.22953 23.4003 7.71283 23.4003C7.19581 23.4003 6.77482 23.8209 6.77482 24.3382C6.77472 24.8555 7.19581 25.2763 7.71283 25.2763ZM40.2229 20.283C39.9543 20.3674 39.6801 20.4387 39.3975 20.4809C39.5555 21.7001 39.3198 22.9407 38.7206 24.0333C38.8425 24.3384 38.911 24.6698 38.911 25.0177C38.911 26.4898 37.7133 27.6876 36.2411 27.6876C35.5569 27.6876 34.9348 27.4269 34.4615 27.0028C32.3318 27.3231 30.2316 26.4568 28.9517 24.76C27.4701 25.4458 25.7837 25.4751 24.2756 24.8393C22.8703 26.5425 21.0195 27.2276 19.2412 27.2276C18.1062 27.2276 17.001 26.9486 16.0589 26.4776C13.6985 25.297 11.6873 22.5699 12.3854 19.1697C11.5421 18.9527 10.7787 18.5441 10.141 17.9931C9.5491 19.0838 9.17334 20.3399 8.94367 21.9713C9.79778 22.417 10.3824 23.31 10.3824 24.3381C10.3824 25.3942 9.76491 26.3068 8.87234 26.7394C9.13896 28.9287 9.82636 31.0189 10.9295 32.9566L11.051 33.1678C11.5683 34.0655 11.8283 34.5957 11.6103 35.9172C10.4035 43.2376 12.5553 48.6971 18.1893 52.6081C18.1893 52.6063 18.2394 52.5727 18.2394 52.5712V43.0752C18.2394 39.4881 21.1579 36.5695 24.7453 36.5695C28.3327 36.5695 31.2507 39.488 31.2507 43.0752V52.5712L31.7951 53.3193L31.3014 52.6081C36.9347 48.6975 39.0868 43.2377 37.8801 35.9168C37.6619 34.5957 37.9217 34.0655 38.4392 33.1678L38.5599 32.9568C40.7211 29.1613 41.2905 24.7969 40.2229 20.283ZM36.2411 24.0797C35.7239 24.0797 35.3029 24.5005 35.3029 25.0178C35.3029 25.5351 35.7239 25.9559 36.2411 25.9559C36.7581 25.9559 37.1791 25.5351 37.1791 25.0178C37.1792 24.5005 36.7581 24.0797 36.2411 24.0797ZM40.2201 6.82614H35.8634V14.3037C35.8634 14.7819 35.4757 15.1696 34.9971 15.1696H33.2469C32.855 15.1696 32.5121 14.9063 32.4106 14.5278L32.0364 13.1316L31.6626 14.5275C31.5613 14.9063 31.218 15.1696 30.8262 15.1696H16.6399C16.1618 15.1696 15.7742 14.782 15.7742 14.3037V6.70024C15.4997 6.61957 15.2419 6.50151 15.0044 6.35241C14.0414 7.02552 13.4237 8.11907 13.3652 9.30512C13.3465 9.67594 13.0937 9.99391 12.736 10.0953C10.9367 10.6055 9.77351 12.326 9.97073 14.1863C10.1673 16.0466 11.666 17.4851 13.5331 17.6062C13.8029 17.6241 14.0496 17.767 14.1987 17.9929C14.3482 18.2186 14.3832 18.5013 14.2936 18.757C13.2841 21.6378 14.8415 23.9325 16.8334 24.9289C18.8244 25.9245 21.5954 25.7954 23.2954 23.2594C23.5508 22.8791 24.0579 22.7626 24.4529 22.9949C25.8028 23.7882 27.4546 23.747 28.7639 22.8883C28.9657 22.7559 29.2145 22.7135 29.4487 22.7724C29.6835 22.831 29.8828 22.9851 29.9984 23.1973C30.7325 24.5409 32.1133 25.3346 33.5917 25.3354C33.5796 25.2311 33.5712 25.1252 33.5712 25.0178C33.5712 23.5456 34.7685 22.348 36.2411 22.348C36.6796 22.348 37.0921 22.4563 37.4579 22.6443C37.776 21.7808 37.7995 20.8312 37.5058 19.9408C37.4168 19.6694 37.4665 19.3711 37.64 19.144C37.8133 18.9167 38.0849 18.7892 38.3735 18.8046C39.9289 18.8892 41.3324 18.032 41.9799 16.6292C42.6282 15.2262 42.36 13.5949 41.2975 12.473C41.0545 12.216 40.992 11.8367 41.1404 11.5153C41.7864 10.1137 41.5944 8.48978 40.6389 7.27785C40.5126 7.11736 40.3704 6.96654 40.2201 6.82614Z" fill="#546E7A"/>
</svg>