<svg xmlns="http://www.w3.org/2000/svg" width="55" height="55" viewBox="0 0 55 55" fill="none"><path d="M53.488 28.7556H44.8927C42.6165 28.7556 40.7599 30.467 40.5746 32.735C40.2268 36.9905 38.3197 40.2521 34.7458 42.7026V37.0127C40.0801 34.1791 42.7634 29.4064 42.7071 22.8055C42.7018 22.192 42.738 22.147 43.1794 21.5988L43.3127 21.4324C46.0336 18.0156 47.1741 13.7559 46.6112 9.1151C46.6083 9.09061 46.6043 9.06676 46.5993 9.04227C45.6052 4.2852 42.7652 3.2866 40.5576 3.2866C39.1269 3.2866 37.4449 3.70028 35.5566 4.51615C33.7026 4.89943 31.6982 4.58565 30.0523 3.6571C27.7311 1.63016 25.6667 0.644775 23.7438 0.644775C21.524 0.644775 19.6439 1.97627 18.1557 4.6023C18.1434 4.62368 18.1322 4.6457 18.1221 4.66869C16.1712 8.9168 15.9598 13.3215 17.5102 17.4043L17.5865 17.6041C17.8396 18.2609 17.8602 18.3145 17.6681 18.897C15.525 25.4032 16.7803 30.9346 21.4027 35.3435C21.7057 35.629 22.1003 35.786 22.5136 35.786C22.7167 35.786 22.9115 35.7496 23.091 35.6831L23.0912 42.7C19.4874 40.1641 17.5727 36.9051 17.2388 32.7422C17.0569 30.4695 15.2003 28.7556 12.9204 28.7556H1.51089C1.03232 28.7556 0.644531 29.1429 0.644531 29.6218V49.3728C0.644531 52.1195 2.87955 54.3553 5.62676 54.3553H49.372C52.1193 54.3553 54.3542 52.1195 54.3542 49.3728V29.6218C54.3542 29.1429 53.9666 28.7556 53.488 28.7556ZM33.0656 27.683L32.6958 30.0515C31.6551 29.1678 30.3178 28.6573 28.919 28.6573C28.9175 28.6573 28.9164 28.6573 28.9147 28.6573C27.3594 28.6573 25.8969 29.2629 24.7972 30.3628C24.7804 30.3791 24.7663 30.3978 24.7501 30.4149L25.3642 26.4808C25.6624 24.5704 27.2795 23.1831 29.2091 23.1831C29.4107 23.1831 29.6149 23.199 29.816 23.2307C31.9394 23.5624 33.3972 25.5601 33.0656 27.683ZM22.4458 33.9424C18.4188 30.0121 17.3944 25.2658 19.3134 19.4389C19.6821 18.3208 19.5292 17.8271 19.2032 16.9811L19.1297 16.79C17.752 13.161 17.9428 9.23165 19.681 5.42462C20.8511 3.37426 22.1803 2.37717 23.7437 2.37717C25.2245 2.37717 26.9846 3.26576 28.9749 5.01556C29.0175 5.05358 29.064 5.08688 29.1132 5.11524C30.5776 5.96216 32.2552 6.41107 33.9649 6.41107C34.6533 6.41107 35.3402 6.33663 36.0065 6.1914C36.062 6.17904 36.1164 6.16143 36.1686 6.1394C37.87 5.39572 39.3466 5.01942 40.5575 5.01942C42.026 5.01942 44.0708 5.4707 44.8956 9.36056C45.3909 13.5164 44.3753 17.3162 41.9575 20.3528L41.8299 20.5126C41.2607 21.2192 40.9643 21.6424 40.9744 22.8203C41.0265 28.9563 38.6031 33.1649 33.5708 35.6791L34.7773 27.9499C35.2561 24.8833 33.1503 21.998 30.0832 21.5195C29.7939 21.4738 29.4998 21.4507 29.2089 21.4507C26.4201 21.4507 24.0829 23.4539 23.652 26.2141L22.4458 33.9424ZM52.6218 49.3728C52.6218 51.1642 51.164 52.6226 49.372 52.6226H5.62676C3.83475 52.6226 2.37703 51.1642 2.37703 49.3728V30.4878H12.9204C14.2884 30.4878 15.4028 31.5162 15.5119 32.8804C15.8882 37.5737 18.1465 41.3847 22.224 44.2077C22.2744 44.2429 22.3286 44.2719 22.3854 44.2963C22.9736 44.539 23.4971 44.5435 23.9418 44.3075C24.3868 44.071 24.6773 43.6355 24.8059 43.0127C24.8177 42.9548 24.8236 42.8965 24.8236 42.8374L24.8235 34.484C24.8228 33.3898 25.2485 32.3613 26.022 31.5874C26.7949 30.8157 27.8219 30.3901 28.9153 30.3901H28.9182C30.3048 30.3901 31.5999 31.1073 32.3505 32.2643L31.8292 35.6032C31.7534 36.0737 31.8865 36.5515 32.1946 36.9134C32.4117 37.1694 32.699 37.3417 33.0132 37.428V42.8372C33.0132 42.8963 33.0191 42.9546 33.0312 43.0119C33.1593 43.6353 33.4499 44.0707 33.8947 44.3073C34.3394 44.5432 34.8629 44.5386 35.4513 44.2961C35.505 44.2737 35.5561 44.2462 35.6042 44.2137C39.6567 41.4803 41.91 37.6664 42.3016 32.8756C42.4127 31.5142 43.5267 30.4874 44.8928 30.4874H52.6219V49.3728H52.6218ZM27.5219 6.12963C27.7617 5.71552 28.2913 5.57458 28.7058 5.81338C30.9703 7.1235 33.6261 7.53793 36.1817 6.98009C36.6486 6.87771 37.1107 7.17484 37.2127 7.64159C37.3144 8.10952 37.0184 8.57068 36.5508 8.67306C35.6868 8.86169 34.8123 8.95493 33.9428 8.95493C31.8147 8.95493 29.712 8.39688 27.8381 7.3132C27.4242 7.07333 27.2825 6.54374 27.5219 6.12963Z" fill="#546E7A"/></svg>